<mxfile host="www.draw.io" modified="2020-03-12T15:25:18.432Z" agent="Mozilla/5.0 (Macintosh; Intel Mac OS X 10_14_6) AppleWebKit/537.36 (KHTML, like Gecko) Chrome/82.0.4068.5 Safari/537.36" etag="kkDtvLbvcBzA3PdwHagR" version="12.8.2" type="github" pages="8">
  <diagram id="dBlQohLyx1JI42SGjpYy" name="第 1 页">
    <mxGraphModel dx="2026" dy="1082" grid="1" gridSize="10" guides="1" tooltips="1" connect="1" arrows="1" fold="1" page="1" pageScale="1" pageWidth="827" pageHeight="1169" math="0" shadow="0">
      <root>
        <mxCell id="0" />
        <mxCell id="1" parent="0" />
        <mxCell id="uYkGMVlgr9G6FDHvBhSE-8" value="0" style="text;html=1;strokeColor=none;fillColor=none;align=left;verticalAlign=middle;whiteSpace=wrap;rounded=0;" parent="1" vertex="1">
          <mxGeometry x="200" y="120" width="40" height="20" as="geometry" />
        </mxCell>
        <mxCell id="uYkGMVlgr9G6FDHvBhSE-9" value="15" style="text;html=1;strokeColor=none;fillColor=none;align=right;verticalAlign=middle;whiteSpace=wrap;rounded=0;" parent="1" vertex="1">
          <mxGeometry x="480" y="120" width="40" height="20" as="geometry" />
        </mxCell>
        <mxCell id="uYkGMVlgr9G6FDHvBhSE-10" value="16" style="text;html=1;strokeColor=none;fillColor=none;align=left;verticalAlign=middle;whiteSpace=wrap;rounded=0;" parent="1" vertex="1">
          <mxGeometry x="520" y="120" width="40" height="20" as="geometry" />
        </mxCell>
        <mxCell id="uYkGMVlgr9G6FDHvBhSE-11" value="31" style="text;html=1;strokeColor=none;fillColor=none;align=right;verticalAlign=middle;whiteSpace=wrap;rounded=0;" parent="1" vertex="1">
          <mxGeometry x="800" y="120" width="40" height="20" as="geometry" />
        </mxCell>
        <mxCell id="uYkGMVlgr9G6FDHvBhSE-15" value="类" style="text;html=1;strokeColor=none;fillColor=none;align=center;verticalAlign=middle;whiteSpace=wrap;rounded=0;" parent="1" vertex="1">
          <mxGeometry x="110" y="100" width="40" height="20" as="geometry" />
        </mxCell>
        <mxCell id="uYkGMVlgr9G6FDHvBhSE-16" value="" style="rounded=0;whiteSpace=wrap;html=1;" parent="1" vertex="1">
          <mxGeometry x="200" y="240" width="640" height="60" as="geometry" />
        </mxCell>
        <mxCell id="uYkGMVlgr9G6FDHvBhSE-17" value="" style="endArrow=none;dashed=1;html=1;entryX=0.031;entryY=0.977;entryDx=0;entryDy=0;entryPerimeter=0;exitX=0.031;exitY=0;exitDx=0;exitDy=0;exitPerimeter=0;" parent="1" source="uYkGMVlgr9G6FDHvBhSE-16" target="uYkGMVlgr9G6FDHvBhSE-16" edge="1">
          <mxGeometry width="50" height="50" relative="1" as="geometry">
            <mxPoint x="223" y="302" as="sourcePoint" />
            <mxPoint x="223" y="239" as="targetPoint" />
          </mxGeometry>
        </mxCell>
        <mxCell id="uYkGMVlgr9G6FDHvBhSE-18" value="1" style="text;html=1;strokeColor=none;fillColor=none;align=center;verticalAlign=middle;whiteSpace=wrap;rounded=0;" parent="1" vertex="1">
          <mxGeometry x="200" y="250" width="20" height="40" as="geometry" />
        </mxCell>
        <mxCell id="uYkGMVlgr9G6FDHvBhSE-19" value="" style="endArrow=none;html=1;entryX=0.5;entryY=0;entryDx=0;entryDy=0;exitX=0.5;exitY=1;exitDx=0;exitDy=0;" parent="1" source="uYkGMVlgr9G6FDHvBhSE-16" target="uYkGMVlgr9G6FDHvBhSE-16" edge="1">
          <mxGeometry width="50" height="50" relative="1" as="geometry">
            <mxPoint x="290" y="290" as="sourcePoint" />
            <mxPoint x="340" y="240" as="targetPoint" />
          </mxGeometry>
        </mxCell>
        <mxCell id="uYkGMVlgr9G6FDHvBhSE-20" value="主机（16位）" style="text;html=1;strokeColor=none;fillColor=none;align=center;verticalAlign=middle;whiteSpace=wrap;rounded=0;" parent="1" vertex="1">
          <mxGeometry x="560" y="260" width="210" height="20" as="geometry" />
        </mxCell>
        <mxCell id="uYkGMVlgr9G6FDHvBhSE-21" value="网络号（16位；14位自由）" style="text;html=1;strokeColor=none;fillColor=none;align=center;verticalAlign=middle;whiteSpace=wrap;rounded=0;" parent="1" vertex="1">
          <mxGeometry x="240" y="260" width="280" height="20" as="geometry" />
        </mxCell>
        <mxCell id="uYkGMVlgr9G6FDHvBhSE-23" value="0" style="text;html=1;strokeColor=none;fillColor=none;align=left;verticalAlign=middle;whiteSpace=wrap;rounded=0;" parent="1" vertex="1">
          <mxGeometry x="200" y="220" width="40" height="20" as="geometry" />
        </mxCell>
        <mxCell id="uYkGMVlgr9G6FDHvBhSE-24" value="15" style="text;html=1;strokeColor=none;fillColor=none;align=right;verticalAlign=middle;whiteSpace=wrap;rounded=0;" parent="1" vertex="1">
          <mxGeometry x="480" y="220" width="40" height="20" as="geometry" />
        </mxCell>
        <mxCell id="uYkGMVlgr9G6FDHvBhSE-25" value="16" style="text;html=1;strokeColor=none;fillColor=none;align=left;verticalAlign=middle;whiteSpace=wrap;rounded=0;" parent="1" vertex="1">
          <mxGeometry x="520" y="220" width="40" height="20" as="geometry" />
        </mxCell>
        <mxCell id="uYkGMVlgr9G6FDHvBhSE-26" value="31" style="text;html=1;strokeColor=none;fillColor=none;align=right;verticalAlign=middle;whiteSpace=wrap;rounded=0;" parent="1" vertex="1">
          <mxGeometry x="800" y="220" width="40" height="20" as="geometry" />
        </mxCell>
        <mxCell id="uYkGMVlgr9G6FDHvBhSE-27" value="&lt;span style=&quot;font-size: 48px&quot;&gt;B&lt;/span&gt;" style="text;html=1;strokeColor=none;fillColor=none;align=center;verticalAlign=middle;whiteSpace=wrap;rounded=0;" parent="1" vertex="1">
          <mxGeometry x="100" y="240" width="60" height="60" as="geometry" />
        </mxCell>
        <mxCell id="uYkGMVlgr9G6FDHvBhSE-28" value="" style="group" parent="1" vertex="1" connectable="0">
          <mxGeometry x="100" y="140" width="740" height="60" as="geometry" />
        </mxCell>
        <mxCell id="uYkGMVlgr9G6FDHvBhSE-1" value="" style="rounded=0;whiteSpace=wrap;html=1;" parent="uYkGMVlgr9G6FDHvBhSE-28" vertex="1">
          <mxGeometry x="100" width="640" height="60" as="geometry" />
        </mxCell>
        <mxCell id="uYkGMVlgr9G6FDHvBhSE-2" value="" style="endArrow=none;dashed=1;html=1;entryX=0.031;entryY=0.977;entryDx=0;entryDy=0;entryPerimeter=0;exitX=0.031;exitY=0;exitDx=0;exitDy=0;exitPerimeter=0;" parent="uYkGMVlgr9G6FDHvBhSE-28" source="uYkGMVlgr9G6FDHvBhSE-1" target="uYkGMVlgr9G6FDHvBhSE-1" edge="1">
          <mxGeometry width="50" height="50" relative="1" as="geometry">
            <mxPoint x="123" y="62" as="sourcePoint" />
            <mxPoint x="123" y="-1" as="targetPoint" />
          </mxGeometry>
        </mxCell>
        <mxCell id="uYkGMVlgr9G6FDHvBhSE-3" value="0" style="text;html=1;strokeColor=none;fillColor=none;align=center;verticalAlign=middle;whiteSpace=wrap;rounded=0;" parent="uYkGMVlgr9G6FDHvBhSE-28" vertex="1">
          <mxGeometry x="100" y="10" width="20" height="40" as="geometry" />
        </mxCell>
        <mxCell id="uYkGMVlgr9G6FDHvBhSE-4" value="" style="endArrow=none;html=1;entryX=0.25;entryY=0;entryDx=0;entryDy=0;exitX=0.25;exitY=1;exitDx=0;exitDy=0;" parent="uYkGMVlgr9G6FDHvBhSE-28" source="uYkGMVlgr9G6FDHvBhSE-1" target="uYkGMVlgr9G6FDHvBhSE-1" edge="1">
          <mxGeometry width="50" height="50" relative="1" as="geometry">
            <mxPoint x="190" y="50" as="sourcePoint" />
            <mxPoint x="240" as="targetPoint" />
          </mxGeometry>
        </mxCell>
        <mxCell id="uYkGMVlgr9G6FDHvBhSE-5" value="主机（24位）" style="text;html=1;strokeColor=none;fillColor=none;align=center;verticalAlign=middle;whiteSpace=wrap;rounded=0;" parent="uYkGMVlgr9G6FDHvBhSE-28" vertex="1">
          <mxGeometry x="360" y="20" width="210" height="20" as="geometry" />
        </mxCell>
        <mxCell id="uYkGMVlgr9G6FDHvBhSE-6" value="网络号" style="text;html=1;strokeColor=none;fillColor=none;align=center;verticalAlign=middle;whiteSpace=wrap;rounded=0;" parent="uYkGMVlgr9G6FDHvBhSE-28" vertex="1">
          <mxGeometry x="160" y="10" width="40" height="20" as="geometry" />
        </mxCell>
        <mxCell id="uYkGMVlgr9G6FDHvBhSE-7" value="（8位；7位自由）" style="text;html=1;strokeColor=none;fillColor=none;align=center;verticalAlign=middle;whiteSpace=wrap;rounded=0;" parent="uYkGMVlgr9G6FDHvBhSE-28" vertex="1">
          <mxGeometry x="130" y="30" width="120" height="20" as="geometry" />
        </mxCell>
        <mxCell id="uYkGMVlgr9G6FDHvBhSE-14" value="&lt;font style=&quot;font-size: 48px&quot;&gt;A&lt;/font&gt;" style="text;html=1;strokeColor=none;fillColor=none;align=center;verticalAlign=middle;whiteSpace=wrap;rounded=0;" parent="uYkGMVlgr9G6FDHvBhSE-28" vertex="1">
          <mxGeometry width="60" height="60" as="geometry" />
        </mxCell>
        <mxCell id="uYkGMVlgr9G6FDHvBhSE-29" value="" style="endArrow=none;dashed=1;html=1;entryX=0.062;entryY=1.011;entryDx=0;entryDy=0;entryPerimeter=0;" parent="1" target="uYkGMVlgr9G6FDHvBhSE-16" edge="1">
          <mxGeometry width="50" height="50" relative="1" as="geometry">
            <mxPoint x="240" y="240" as="sourcePoint" />
            <mxPoint x="240.00000000000014" y="288.6200000000001" as="targetPoint" />
          </mxGeometry>
        </mxCell>
        <mxCell id="uYkGMVlgr9G6FDHvBhSE-30" value="0" style="text;html=1;strokeColor=none;fillColor=none;align=center;verticalAlign=middle;whiteSpace=wrap;rounded=0;" parent="1" vertex="1">
          <mxGeometry x="220" y="250" width="20" height="40" as="geometry" />
        </mxCell>
        <mxCell id="uYkGMVlgr9G6FDHvBhSE-31" value="" style="rounded=0;whiteSpace=wrap;html=1;" parent="1" vertex="1">
          <mxGeometry x="200" y="340" width="640" height="60" as="geometry" />
        </mxCell>
        <mxCell id="uYkGMVlgr9G6FDHvBhSE-32" value="" style="endArrow=none;dashed=1;html=1;entryX=0.031;entryY=0.977;entryDx=0;entryDy=0;entryPerimeter=0;exitX=0.031;exitY=0;exitDx=0;exitDy=0;exitPerimeter=0;" parent="1" source="uYkGMVlgr9G6FDHvBhSE-31" target="uYkGMVlgr9G6FDHvBhSE-31" edge="1">
          <mxGeometry width="50" height="50" relative="1" as="geometry">
            <mxPoint x="223" y="402" as="sourcePoint" />
            <mxPoint x="223" y="339" as="targetPoint" />
          </mxGeometry>
        </mxCell>
        <mxCell id="uYkGMVlgr9G6FDHvBhSE-33" value="1" style="text;html=1;strokeColor=none;fillColor=none;align=center;verticalAlign=middle;whiteSpace=wrap;rounded=0;" parent="1" vertex="1">
          <mxGeometry x="200" y="350" width="20" height="40" as="geometry" />
        </mxCell>
        <mxCell id="uYkGMVlgr9G6FDHvBhSE-35" value="主机（8位）" style="text;html=1;strokeColor=none;fillColor=none;align=center;verticalAlign=middle;whiteSpace=wrap;rounded=0;" parent="1" vertex="1">
          <mxGeometry x="630" y="360" width="210" height="20" as="geometry" />
        </mxCell>
        <mxCell id="uYkGMVlgr9G6FDHvBhSE-36" value="网络号（24位；21位自由）" style="text;html=1;strokeColor=none;fillColor=none;align=center;verticalAlign=middle;whiteSpace=wrap;rounded=0;" parent="1" vertex="1">
          <mxGeometry x="260" y="360" width="420" height="20" as="geometry" />
        </mxCell>
        <mxCell id="uYkGMVlgr9G6FDHvBhSE-37" value="0" style="text;html=1;strokeColor=none;fillColor=none;align=left;verticalAlign=middle;whiteSpace=wrap;rounded=0;" parent="1" vertex="1">
          <mxGeometry x="200" y="320" width="40" height="20" as="geometry" />
        </mxCell>
        <mxCell id="uYkGMVlgr9G6FDHvBhSE-38" value="15" style="text;html=1;strokeColor=none;fillColor=none;align=right;verticalAlign=middle;whiteSpace=wrap;rounded=0;" parent="1" vertex="1">
          <mxGeometry x="480" y="320" width="40" height="20" as="geometry" />
        </mxCell>
        <mxCell id="uYkGMVlgr9G6FDHvBhSE-39" value="16" style="text;html=1;strokeColor=none;fillColor=none;align=left;verticalAlign=middle;whiteSpace=wrap;rounded=0;" parent="1" vertex="1">
          <mxGeometry x="520" y="320" width="40" height="20" as="geometry" />
        </mxCell>
        <mxCell id="uYkGMVlgr9G6FDHvBhSE-40" value="31" style="text;html=1;strokeColor=none;fillColor=none;align=right;verticalAlign=middle;whiteSpace=wrap;rounded=0;" parent="1" vertex="1">
          <mxGeometry x="800" y="320" width="40" height="20" as="geometry" />
        </mxCell>
        <mxCell id="uYkGMVlgr9G6FDHvBhSE-41" value="&lt;span style=&quot;font-size: 48px&quot;&gt;C&lt;/span&gt;" style="text;html=1;strokeColor=none;fillColor=none;align=center;verticalAlign=middle;whiteSpace=wrap;rounded=0;" parent="1" vertex="1">
          <mxGeometry x="100" y="340" width="60" height="60" as="geometry" />
        </mxCell>
        <mxCell id="uYkGMVlgr9G6FDHvBhSE-42" value="" style="endArrow=none;dashed=1;html=1;entryX=0.062;entryY=1.011;entryDx=0;entryDy=0;entryPerimeter=0;" parent="1" target="uYkGMVlgr9G6FDHvBhSE-31" edge="1">
          <mxGeometry width="50" height="50" relative="1" as="geometry">
            <mxPoint x="240" y="340" as="sourcePoint" />
            <mxPoint x="240.00000000000014" y="388.6200000000001" as="targetPoint" />
          </mxGeometry>
        </mxCell>
        <mxCell id="uYkGMVlgr9G6FDHvBhSE-43" value="1" style="text;html=1;strokeColor=none;fillColor=none;align=center;verticalAlign=middle;whiteSpace=wrap;rounded=0;" parent="1" vertex="1">
          <mxGeometry x="220" y="350" width="20" height="40" as="geometry" />
        </mxCell>
        <mxCell id="uYkGMVlgr9G6FDHvBhSE-44" value="" style="endArrow=none;dashed=1;html=1;entryX=0.062;entryY=1.011;entryDx=0;entryDy=0;entryPerimeter=0;" parent="1" edge="1">
          <mxGeometry width="50" height="50" relative="1" as="geometry">
            <mxPoint x="260.32" y="339.67" as="sourcePoint" />
            <mxPoint x="260.00000000000006" y="400.32999999999987" as="targetPoint" />
          </mxGeometry>
        </mxCell>
        <mxCell id="uYkGMVlgr9G6FDHvBhSE-45" value="0" style="text;html=1;strokeColor=none;fillColor=none;align=center;verticalAlign=middle;whiteSpace=wrap;rounded=0;" parent="1" vertex="1">
          <mxGeometry x="240" y="350" width="20" height="40" as="geometry" />
        </mxCell>
        <mxCell id="uYkGMVlgr9G6FDHvBhSE-46" value="" style="endArrow=none;html=1;entryX=0.5;entryY=0;entryDx=0;entryDy=0;exitX=0.5;exitY=1;exitDx=0;exitDy=0;" parent="1" edge="1">
          <mxGeometry width="50" height="50" relative="1" as="geometry">
            <mxPoint x="680.0000000000002" y="400" as="sourcePoint" />
            <mxPoint x="680.0000000000002" y="340" as="targetPoint" />
          </mxGeometry>
        </mxCell>
        <mxCell id="uYkGMVlgr9G6FDHvBhSE-47" value="" style="rounded=0;whiteSpace=wrap;html=1;" parent="1" vertex="1">
          <mxGeometry x="200" y="440.33" width="640" height="60" as="geometry" />
        </mxCell>
        <mxCell id="uYkGMVlgr9G6FDHvBhSE-48" value="" style="endArrow=none;dashed=1;html=1;entryX=0.031;entryY=0.977;entryDx=0;entryDy=0;entryPerimeter=0;exitX=0.031;exitY=0;exitDx=0;exitDy=0;exitPerimeter=0;" parent="1" source="uYkGMVlgr9G6FDHvBhSE-47" target="uYkGMVlgr9G6FDHvBhSE-47" edge="1">
          <mxGeometry width="50" height="50" relative="1" as="geometry">
            <mxPoint x="223" y="502.33" as="sourcePoint" />
            <mxPoint x="223" y="439.33" as="targetPoint" />
          </mxGeometry>
        </mxCell>
        <mxCell id="uYkGMVlgr9G6FDHvBhSE-49" value="1" style="text;html=1;strokeColor=none;fillColor=none;align=center;verticalAlign=middle;whiteSpace=wrap;rounded=0;" parent="1" vertex="1">
          <mxGeometry x="200" y="450.33" width="20" height="40" as="geometry" />
        </mxCell>
        <mxCell id="uYkGMVlgr9G6FDHvBhSE-51" value="组播地址（32位；28位自由）" style="text;html=1;strokeColor=none;fillColor=none;align=center;verticalAlign=middle;whiteSpace=wrap;rounded=0;" parent="1" vertex="1">
          <mxGeometry x="280" y="460.33" width="560" height="20" as="geometry" />
        </mxCell>
        <mxCell id="uYkGMVlgr9G6FDHvBhSE-52" value="&lt;span style=&quot;font-size: 48px&quot;&gt;D&lt;/span&gt;" style="text;html=1;strokeColor=none;fillColor=none;align=center;verticalAlign=middle;whiteSpace=wrap;rounded=0;" parent="1" vertex="1">
          <mxGeometry x="100" y="440.33" width="60" height="60" as="geometry" />
        </mxCell>
        <mxCell id="uYkGMVlgr9G6FDHvBhSE-53" value="" style="endArrow=none;dashed=1;html=1;entryX=0.062;entryY=1.011;entryDx=0;entryDy=0;entryPerimeter=0;" parent="1" target="uYkGMVlgr9G6FDHvBhSE-47" edge="1">
          <mxGeometry width="50" height="50" relative="1" as="geometry">
            <mxPoint x="240" y="440.33" as="sourcePoint" />
            <mxPoint x="240.00000000000014" y="488.9500000000001" as="targetPoint" />
          </mxGeometry>
        </mxCell>
        <mxCell id="uYkGMVlgr9G6FDHvBhSE-54" value="1" style="text;html=1;strokeColor=none;fillColor=none;align=center;verticalAlign=middle;whiteSpace=wrap;rounded=0;" parent="1" vertex="1">
          <mxGeometry x="220" y="450.33" width="20" height="40" as="geometry" />
        </mxCell>
        <mxCell id="uYkGMVlgr9G6FDHvBhSE-55" value="" style="endArrow=none;dashed=1;html=1;entryX=0.062;entryY=1.011;entryDx=0;entryDy=0;entryPerimeter=0;" parent="1" edge="1">
          <mxGeometry width="50" height="50" relative="1" as="geometry">
            <mxPoint x="260.32000000000016" y="440.00000000000006" as="sourcePoint" />
            <mxPoint x="260" y="500.6599999999999" as="targetPoint" />
          </mxGeometry>
        </mxCell>
        <mxCell id="uYkGMVlgr9G6FDHvBhSE-56" value="1" style="text;html=1;strokeColor=none;fillColor=none;align=center;verticalAlign=middle;whiteSpace=wrap;rounded=0;" parent="1" vertex="1">
          <mxGeometry x="240" y="450.33" width="20" height="40" as="geometry" />
        </mxCell>
        <mxCell id="uYkGMVlgr9G6FDHvBhSE-58" value="" style="endArrow=none;dashed=1;html=1;entryX=0.062;entryY=1.011;entryDx=0;entryDy=0;entryPerimeter=0;" parent="1" edge="1">
          <mxGeometry width="50" height="50" relative="1" as="geometry">
            <mxPoint x="280.32000000000016" y="440.33" as="sourcePoint" />
            <mxPoint x="280" y="500.98999999999984" as="targetPoint" />
          </mxGeometry>
        </mxCell>
        <mxCell id="uYkGMVlgr9G6FDHvBhSE-59" value="0" style="text;html=1;strokeColor=none;fillColor=none;align=center;verticalAlign=middle;whiteSpace=wrap;rounded=0;" parent="1" vertex="1">
          <mxGeometry x="260" y="450.33" width="20" height="40" as="geometry" />
        </mxCell>
        <mxCell id="uYkGMVlgr9G6FDHvBhSE-62" value="" style="rounded=0;whiteSpace=wrap;html=1;" parent="1" vertex="1">
          <mxGeometry x="200" y="540.3299999999999" width="640" height="60" as="geometry" />
        </mxCell>
        <mxCell id="uYkGMVlgr9G6FDHvBhSE-63" value="" style="endArrow=none;dashed=1;html=1;entryX=0.031;entryY=0.977;entryDx=0;entryDy=0;entryPerimeter=0;exitX=0.031;exitY=0;exitDx=0;exitDy=0;exitPerimeter=0;" parent="1" source="uYkGMVlgr9G6FDHvBhSE-62" target="uYkGMVlgr9G6FDHvBhSE-62" edge="1">
          <mxGeometry width="50" height="50" relative="1" as="geometry">
            <mxPoint x="223" y="602.3299999999999" as="sourcePoint" />
            <mxPoint x="223" y="539.3299999999999" as="targetPoint" />
          </mxGeometry>
        </mxCell>
        <mxCell id="uYkGMVlgr9G6FDHvBhSE-64" value="1" style="text;html=1;strokeColor=none;fillColor=none;align=center;verticalAlign=middle;whiteSpace=wrap;rounded=0;" parent="1" vertex="1">
          <mxGeometry x="200" y="550.3299999999999" width="20" height="40" as="geometry" />
        </mxCell>
        <mxCell id="uYkGMVlgr9G6FDHvBhSE-65" value="保留（32位；28位自由）" style="text;html=1;strokeColor=none;fillColor=none;align=center;verticalAlign=middle;whiteSpace=wrap;rounded=0;" parent="1" vertex="1">
          <mxGeometry x="280" y="560.3299999999999" width="560" height="20" as="geometry" />
        </mxCell>
        <mxCell id="uYkGMVlgr9G6FDHvBhSE-66" value="&lt;span style=&quot;font-size: 48px&quot;&gt;E&lt;/span&gt;" style="text;html=1;strokeColor=none;fillColor=none;align=center;verticalAlign=middle;whiteSpace=wrap;rounded=0;" parent="1" vertex="1">
          <mxGeometry x="100" y="540.3299999999999" width="60" height="60" as="geometry" />
        </mxCell>
        <mxCell id="uYkGMVlgr9G6FDHvBhSE-67" value="" style="endArrow=none;dashed=1;html=1;entryX=0.062;entryY=1.011;entryDx=0;entryDy=0;entryPerimeter=0;" parent="1" target="uYkGMVlgr9G6FDHvBhSE-62" edge="1">
          <mxGeometry width="50" height="50" relative="1" as="geometry">
            <mxPoint x="240" y="540.3299999999999" as="sourcePoint" />
            <mxPoint x="240.00000000000014" y="588.95" as="targetPoint" />
          </mxGeometry>
        </mxCell>
        <mxCell id="uYkGMVlgr9G6FDHvBhSE-68" value="1" style="text;html=1;strokeColor=none;fillColor=none;align=center;verticalAlign=middle;whiteSpace=wrap;rounded=0;" parent="1" vertex="1">
          <mxGeometry x="220" y="550.3299999999999" width="20" height="40" as="geometry" />
        </mxCell>
        <mxCell id="uYkGMVlgr9G6FDHvBhSE-69" value="" style="endArrow=none;dashed=1;html=1;entryX=0.062;entryY=1.011;entryDx=0;entryDy=0;entryPerimeter=0;" parent="1" edge="1">
          <mxGeometry width="50" height="50" relative="1" as="geometry">
            <mxPoint x="260.32000000000016" y="540" as="sourcePoint" />
            <mxPoint x="260" y="600.6599999999999" as="targetPoint" />
          </mxGeometry>
        </mxCell>
        <mxCell id="uYkGMVlgr9G6FDHvBhSE-70" value="1" style="text;html=1;strokeColor=none;fillColor=none;align=center;verticalAlign=middle;whiteSpace=wrap;rounded=0;" parent="1" vertex="1">
          <mxGeometry x="240" y="550.3299999999999" width="20" height="40" as="geometry" />
        </mxCell>
        <mxCell id="uYkGMVlgr9G6FDHvBhSE-71" value="" style="endArrow=none;dashed=1;html=1;entryX=0.062;entryY=1.011;entryDx=0;entryDy=0;entryPerimeter=0;" parent="1" edge="1">
          <mxGeometry width="50" height="50" relative="1" as="geometry">
            <mxPoint x="280.32000000000016" y="540.3299999999999" as="sourcePoint" />
            <mxPoint x="280.0000000000002" y="600.9899999999998" as="targetPoint" />
          </mxGeometry>
        </mxCell>
        <mxCell id="uYkGMVlgr9G6FDHvBhSE-72" value="1" style="text;html=1;strokeColor=none;fillColor=none;align=center;verticalAlign=middle;whiteSpace=wrap;rounded=0;" parent="1" vertex="1">
          <mxGeometry x="260" y="550.3299999999999" width="20" height="40" as="geometry" />
        </mxCell>
      </root>
    </mxGraphModel>
  </diagram>
  <diagram id="6a1LLVTddAa2RG7-Hirh" name="第 2 页">
    <mxGraphModel dx="2026" dy="1082" grid="1" gridSize="10" guides="1" tooltips="1" connect="1" arrows="1" fold="1" page="1" pageScale="1" pageWidth="827" pageHeight="1169" math="0" shadow="0">
      <root>
        <mxCell id="bXEvcOBhrz6L5EiEIhyo-0" />
        <mxCell id="bXEvcOBhrz6L5EiEIhyo-1" parent="bXEvcOBhrz6L5EiEIhyo-0" />
        <mxCell id="bn6kigZh0TQd_yg5Ptug-0" value="" style="rounded=0;whiteSpace=wrap;html=1;" parent="bXEvcOBhrz6L5EiEIhyo-1" vertex="1">
          <mxGeometry x="200" y="240" width="640" height="60" as="geometry" />
        </mxCell>
        <mxCell id="bn6kigZh0TQd_yg5Ptug-1" value="" style="endArrow=none;dashed=1;html=1;entryX=0.031;entryY=0.977;entryDx=0;entryDy=0;entryPerimeter=0;exitX=0.031;exitY=0;exitDx=0;exitDy=0;exitPerimeter=0;" parent="bXEvcOBhrz6L5EiEIhyo-1" source="bn6kigZh0TQd_yg5Ptug-0" target="bn6kigZh0TQd_yg5Ptug-0" edge="1">
          <mxGeometry width="50" height="50" relative="1" as="geometry">
            <mxPoint x="223" y="302" as="sourcePoint" />
            <mxPoint x="223" y="239" as="targetPoint" />
          </mxGeometry>
        </mxCell>
        <mxCell id="bn6kigZh0TQd_yg5Ptug-2" value="1" style="text;html=1;strokeColor=none;fillColor=none;align=center;verticalAlign=middle;whiteSpace=wrap;rounded=0;" parent="bXEvcOBhrz6L5EiEIhyo-1" vertex="1">
          <mxGeometry x="200" y="250" width="20" height="40" as="geometry" />
        </mxCell>
        <mxCell id="bn6kigZh0TQd_yg5Ptug-3" value="" style="endArrow=none;html=1;entryX=0.5;entryY=0;entryDx=0;entryDy=0;exitX=0.5;exitY=1;exitDx=0;exitDy=0;" parent="bXEvcOBhrz6L5EiEIhyo-1" source="bn6kigZh0TQd_yg5Ptug-0" target="bn6kigZh0TQd_yg5Ptug-0" edge="1">
          <mxGeometry width="50" height="50" relative="1" as="geometry">
            <mxPoint x="290" y="290" as="sourcePoint" />
            <mxPoint x="340" y="240" as="targetPoint" />
          </mxGeometry>
        </mxCell>
        <mxCell id="bn6kigZh0TQd_yg5Ptug-4" value="子网ID（8位）" style="text;html=1;strokeColor=none;fillColor=none;align=center;verticalAlign=middle;whiteSpace=wrap;rounded=0;" parent="bXEvcOBhrz6L5EiEIhyo-1" vertex="1">
          <mxGeometry x="530" y="260" width="130" height="20" as="geometry" />
        </mxCell>
        <mxCell id="bn6kigZh0TQd_yg5Ptug-5" value="网络号（16位；14位自由）" style="text;html=1;strokeColor=none;fillColor=none;align=center;verticalAlign=middle;whiteSpace=wrap;rounded=0;" parent="bXEvcOBhrz6L5EiEIhyo-1" vertex="1">
          <mxGeometry x="240" y="260" width="280" height="20" as="geometry" />
        </mxCell>
        <mxCell id="bn6kigZh0TQd_yg5Ptug-6" value="&lt;span style=&quot;font-size: 48px&quot;&gt;B&lt;/span&gt;" style="text;html=1;strokeColor=none;fillColor=none;align=center;verticalAlign=middle;whiteSpace=wrap;rounded=0;" parent="bXEvcOBhrz6L5EiEIhyo-1" vertex="1">
          <mxGeometry x="100" y="240" width="60" height="60" as="geometry" />
        </mxCell>
        <mxCell id="bn6kigZh0TQd_yg5Ptug-7" value="" style="endArrow=none;dashed=1;html=1;entryX=0.062;entryY=1.011;entryDx=0;entryDy=0;entryPerimeter=0;" parent="bXEvcOBhrz6L5EiEIhyo-1" target="bn6kigZh0TQd_yg5Ptug-0" edge="1">
          <mxGeometry width="50" height="50" relative="1" as="geometry">
            <mxPoint x="240" y="240.0000000000001" as="sourcePoint" />
            <mxPoint x="240.00000000000014" y="288.6200000000001" as="targetPoint" />
          </mxGeometry>
        </mxCell>
        <mxCell id="bn6kigZh0TQd_yg5Ptug-8" value="0" style="text;html=1;strokeColor=none;fillColor=none;align=center;verticalAlign=middle;whiteSpace=wrap;rounded=0;" parent="bXEvcOBhrz6L5EiEIhyo-1" vertex="1">
          <mxGeometry x="220" y="250" width="20" height="40" as="geometry" />
        </mxCell>
        <mxCell id="bn6kigZh0TQd_yg5Ptug-9" value="类" style="text;html=1;align=center;verticalAlign=middle;resizable=0;points=[];autosize=1;" parent="bXEvcOBhrz6L5EiEIhyo-1" vertex="1">
          <mxGeometry x="115" y="201" width="30" height="20" as="geometry" />
        </mxCell>
        <mxCell id="bn6kigZh0TQd_yg5Ptug-10" value="" style="shape=curlyBracket;whiteSpace=wrap;html=1;rounded=1;align=right;direction=south;" parent="bXEvcOBhrz6L5EiEIhyo-1" vertex="1">
          <mxGeometry x="200" y="201" width="320" height="20" as="geometry" />
        </mxCell>
        <mxCell id="bn6kigZh0TQd_yg5Ptug-11" value="集中分配" style="text;html=1;align=center;verticalAlign=middle;resizable=0;points=[];autosize=1;" parent="bXEvcOBhrz6L5EiEIhyo-1" vertex="1">
          <mxGeometry x="339" y="179" width="60" height="20" as="geometry" />
        </mxCell>
        <mxCell id="bn6kigZh0TQd_yg5Ptug-12" value="31" style="text;html=1;align=right;verticalAlign=middle;resizable=0;points=[];autosize=1;" parent="bXEvcOBhrz6L5EiEIhyo-1" vertex="1">
          <mxGeometry x="810" y="220" width="30" height="20" as="geometry" />
        </mxCell>
        <mxCell id="bn6kigZh0TQd_yg5Ptug-13" value="0" style="text;html=1;align=center;verticalAlign=middle;resizable=0;points=[];autosize=1;" parent="bXEvcOBhrz6L5EiEIhyo-1" vertex="1">
          <mxGeometry x="200" y="220" width="20" height="20" as="geometry" />
        </mxCell>
        <mxCell id="bn6kigZh0TQd_yg5Ptug-15" value="" style="shape=curlyBracket;whiteSpace=wrap;html=1;rounded=1;align=right;direction=south;" parent="bXEvcOBhrz6L5EiEIhyo-1" vertex="1">
          <mxGeometry x="520" y="199" width="320" height="20" as="geometry" />
        </mxCell>
        <mxCell id="bn6kigZh0TQd_yg5Ptug-16" value="站点本地管理" style="text;html=1;align=center;verticalAlign=middle;resizable=0;points=[];autosize=1;" parent="bXEvcOBhrz6L5EiEIhyo-1" vertex="1">
          <mxGeometry x="635" y="181" width="90" height="20" as="geometry" />
        </mxCell>
        <mxCell id="bn6kigZh0TQd_yg5Ptug-17" value="15 16" style="text;html=1;align=center;verticalAlign=middle;resizable=0;points=[];autosize=1;" parent="bXEvcOBhrz6L5EiEIhyo-1" vertex="1">
          <mxGeometry x="495" y="219" width="50" height="20" as="geometry" />
        </mxCell>
        <mxCell id="bn6kigZh0TQd_yg5Ptug-18" value="" style="endArrow=none;html=1;entryX=0.5;entryY=0;entryDx=0;entryDy=0;exitX=0.5;exitY=1;exitDx=0;exitDy=0;" parent="bXEvcOBhrz6L5EiEIhyo-1" edge="1">
          <mxGeometry width="50" height="50" relative="1" as="geometry">
            <mxPoint x="679.5" y="299" as="sourcePoint" />
            <mxPoint x="679.5" y="239" as="targetPoint" />
          </mxGeometry>
        </mxCell>
        <mxCell id="bn6kigZh0TQd_yg5Ptug-20" value="主机ID（8位）" style="text;html=1;strokeColor=none;fillColor=none;align=center;verticalAlign=middle;whiteSpace=wrap;rounded=0;" parent="bXEvcOBhrz6L5EiEIhyo-1" vertex="1">
          <mxGeometry x="690" y="260" width="130" height="20" as="geometry" />
        </mxCell>
        <mxCell id="bn6kigZh0TQd_yg5Ptug-21" value="" style="endArrow=classic;html=1;" parent="bXEvcOBhrz6L5EiEIhyo-1" edge="1">
          <mxGeometry width="50" height="50" relative="1" as="geometry">
            <mxPoint x="680" y="360" as="sourcePoint" />
            <mxPoint x="680" y="320" as="targetPoint" />
          </mxGeometry>
        </mxCell>
        <mxCell id="bn6kigZh0TQd_yg5Ptug-22" value="子网/主机部分" style="text;html=1;align=center;verticalAlign=middle;resizable=0;points=[];autosize=1;" parent="bXEvcOBhrz6L5EiEIhyo-1" vertex="1">
          <mxGeometry x="635" y="360" width="90" height="20" as="geometry" />
        </mxCell>
      </root>
    </mxGraphModel>
  </diagram>
  <diagram id="dErsaXPd_9cSkt8exi4G" name="第 3 页">
    <mxGraphModel dx="2026" dy="1082" grid="1" gridSize="10" guides="1" tooltips="1" connect="1" arrows="1" fold="1" page="1" pageScale="1" pageWidth="827" pageHeight="1169" math="0" shadow="0">
      <root>
        <mxCell id="SnBBirL9_vrozBAmLotU-0" />
        <mxCell id="SnBBirL9_vrozBAmLotU-1" parent="SnBBirL9_vrozBAmLotU-0" />
        <mxCell id="SnBBirL9_vrozBAmLotU-2" value="" style="whiteSpace=wrap;html=1;align=right;labelBackgroundColor=#FFFFFF;fillColor=#dae8fc;strokeColor=#6c8ebf;" parent="SnBBirL9_vrozBAmLotU-1" vertex="1">
          <mxGeometry x="80" y="390" width="640" height="450" as="geometry" />
        </mxCell>
        <mxCell id="SnBBirL9_vrozBAmLotU-3" value="" style="rounded=0;whiteSpace=wrap;html=1;labelBackgroundColor=#FFFFFF;align=right;fillColor=#d5e8d4;strokeColor=#82b366;" parent="SnBBirL9_vrozBAmLotU-1" vertex="1">
          <mxGeometry x="124" y="550" width="556" height="250" as="geometry" />
        </mxCell>
        <mxCell id="SnBBirL9_vrozBAmLotU-4" value="站点边界路由器" style="rounded=0;whiteSpace=wrap;html=1;labelBackgroundColor=none;align=center;fillColor=#f5f5f5;strokeColor=#666666;fontColor=#333333;" parent="SnBBirL9_vrozBAmLotU-1" vertex="1">
          <mxGeometry x="354" y="585" width="120" height="60" as="geometry" />
        </mxCell>
        <mxCell id="SnBBirL9_vrozBAmLotU-11" value="" style="endArrow=none;html=1;entryX=0.25;entryY=1;entryDx=0;entryDy=0;edgeStyle=elbowEdgeStyle;elbow=vertical;rounded=0;" parent="SnBBirL9_vrozBAmLotU-1" target="SnBBirL9_vrozBAmLotU-4" edge="1">
          <mxGeometry width="50" height="50" relative="1" as="geometry">
            <mxPoint x="310" y="690" as="sourcePoint" />
            <mxPoint x="350" y="620" as="targetPoint" />
          </mxGeometry>
        </mxCell>
        <mxCell id="SnBBirL9_vrozBAmLotU-12" value="" style="endArrow=none;html=1;entryX=1;entryY=0.5;entryDx=0;entryDy=0;edgeStyle=elbowEdgeStyle;elbow=vertical;rounded=0;" parent="SnBBirL9_vrozBAmLotU-1" target="SnBBirL9_vrozBAmLotU-4" edge="1">
          <mxGeometry width="50" height="50" relative="1" as="geometry">
            <mxPoint x="500" y="690" as="sourcePoint" />
            <mxPoint x="390" y="620" as="targetPoint" />
            <Array as="points">
              <mxPoint x="500" y="615" />
            </Array>
          </mxGeometry>
        </mxCell>
        <mxCell id="SnBBirL9_vrozBAmLotU-13" value="128.32.x.x" style="text;html=1;strokeColor=none;fillColor=none;align=center;verticalAlign=middle;whiteSpace=wrap;rounded=0;labelBackgroundColor=none;" parent="SnBBirL9_vrozBAmLotU-1" vertex="1">
          <mxGeometry x="140" y="565" width="40" height="20" as="geometry" />
        </mxCell>
        <mxCell id="SnBBirL9_vrozBAmLotU-14" value="" style="shape=filledEdge;rounded=0;fixDash=1;endArrow=none;strokeWidth=10;fillColor=#f5f5f5;edgeStyle=orthogonalEdgeStyle;strokeColor=#666666;" parent="SnBBirL9_vrozBAmLotU-1" edge="1">
          <mxGeometry width="60" height="40" relative="1" as="geometry">
            <mxPoint x="180" y="690" as="sourcePoint" />
            <mxPoint x="320" y="690" as="targetPoint" />
          </mxGeometry>
        </mxCell>
        <mxCell id="SnBBirL9_vrozBAmLotU-19" value="128.32.1.x" style="text;html=1;strokeColor=none;fillColor=none;align=center;verticalAlign=middle;whiteSpace=wrap;rounded=0;labelBackgroundColor=none;" parent="SnBBirL9_vrozBAmLotU-1" vertex="1">
          <mxGeometry x="230" y="650" width="40" height="20" as="geometry" />
        </mxCell>
        <mxCell id="SnBBirL9_vrozBAmLotU-21" value="" style="endArrow=none;html=1;" parent="SnBBirL9_vrozBAmLotU-1" edge="1">
          <mxGeometry width="50" height="50" relative="1" as="geometry">
            <mxPoint x="190" y="685" as="sourcePoint" />
            <mxPoint x="190" y="670" as="targetPoint" />
          </mxGeometry>
        </mxCell>
        <mxCell id="SnBBirL9_vrozBAmLotU-23" value="" style="endArrow=none;html=1;" parent="SnBBirL9_vrozBAmLotU-1" edge="1">
          <mxGeometry width="50" height="50" relative="1" as="geometry">
            <mxPoint x="240" y="685" as="sourcePoint" />
            <mxPoint x="240" y="670" as="targetPoint" />
          </mxGeometry>
        </mxCell>
        <mxCell id="SnBBirL9_vrozBAmLotU-24" value="" style="endArrow=none;html=1;" parent="SnBBirL9_vrozBAmLotU-1" edge="1">
          <mxGeometry width="50" height="50" relative="1" as="geometry">
            <mxPoint x="270" y="710" as="sourcePoint" />
            <mxPoint x="270" y="695" as="targetPoint" />
          </mxGeometry>
        </mxCell>
        <mxCell id="SnBBirL9_vrozBAmLotU-25" value="" style="endArrow=none;html=1;" parent="SnBBirL9_vrozBAmLotU-1" edge="1">
          <mxGeometry width="50" height="50" relative="1" as="geometry">
            <mxPoint x="210" y="710" as="sourcePoint" />
            <mxPoint x="210" y="695" as="targetPoint" />
          </mxGeometry>
        </mxCell>
        <mxCell id="SnBBirL9_vrozBAmLotU-26" value="128.32.1.14" style="text;html=1;strokeColor=none;fillColor=none;align=center;verticalAlign=middle;whiteSpace=wrap;rounded=0;labelBackgroundColor=none;" parent="SnBBirL9_vrozBAmLotU-1" vertex="1">
          <mxGeometry x="190" y="705" width="40" height="20" as="geometry" />
        </mxCell>
        <mxCell id="SnBBirL9_vrozBAmLotU-30" value="站点范围子网掩码" style="text;html=1;strokeColor=none;fillColor=none;align=center;verticalAlign=middle;whiteSpace=wrap;rounded=0;labelBackgroundColor=none;" parent="SnBBirL9_vrozBAmLotU-1" vertex="1">
          <mxGeometry x="364" y="725" width="100" height="20" as="geometry" />
        </mxCell>
        <mxCell id="SnBBirL9_vrozBAmLotU-31" value="255.255.255.0" style="text;html=1;strokeColor=none;fillColor=none;align=center;verticalAlign=middle;whiteSpace=wrap;rounded=0;labelBackgroundColor=none;" parent="SnBBirL9_vrozBAmLotU-1" vertex="1">
          <mxGeometry x="394" y="745" width="40" height="20" as="geometry" />
        </mxCell>
        <mxCell id="SnBBirL9_vrozBAmLotU-33" value="" style="shape=filledEdge;rounded=0;fixDash=1;endArrow=none;strokeWidth=10;fillColor=#f5f5f5;edgeStyle=orthogonalEdgeStyle;strokeColor=#666666;" parent="SnBBirL9_vrozBAmLotU-1" edge="1">
          <mxGeometry width="60" height="40" relative="1" as="geometry">
            <mxPoint x="490" y="690" as="sourcePoint" />
            <mxPoint x="630" y="690" as="targetPoint" />
          </mxGeometry>
        </mxCell>
        <mxCell id="SnBBirL9_vrozBAmLotU-34" value="128.32.2.x" style="text;html=1;strokeColor=none;fillColor=none;align=center;verticalAlign=middle;whiteSpace=wrap;rounded=0;labelBackgroundColor=none;" parent="SnBBirL9_vrozBAmLotU-1" vertex="1">
          <mxGeometry x="540" y="650" width="40" height="20" as="geometry" />
        </mxCell>
        <mxCell id="SnBBirL9_vrozBAmLotU-35" value="" style="endArrow=none;html=1;exitX=0.855;exitY=0.394;exitDx=0;exitDy=0;exitPerimeter=0;" parent="SnBBirL9_vrozBAmLotU-1" edge="1">
          <mxGeometry width="50" height="50" relative="1" as="geometry">
            <mxPoint x="619.9000000000001" y="670.02" as="sourcePoint" />
            <mxPoint x="620" y="685" as="targetPoint" />
          </mxGeometry>
        </mxCell>
        <mxCell id="SnBBirL9_vrozBAmLotU-36" value="" style="endArrow=none;html=1;" parent="SnBBirL9_vrozBAmLotU-1" edge="1">
          <mxGeometry width="50" height="50" relative="1" as="geometry">
            <mxPoint x="550" y="685" as="sourcePoint" />
            <mxPoint x="550" y="670" as="targetPoint" />
          </mxGeometry>
        </mxCell>
        <mxCell id="SnBBirL9_vrozBAmLotU-37" value="" style="endArrow=none;html=1;" parent="SnBBirL9_vrozBAmLotU-1" edge="1">
          <mxGeometry width="50" height="50" relative="1" as="geometry">
            <mxPoint x="580" y="710" as="sourcePoint" />
            <mxPoint x="580" y="695" as="targetPoint" />
          </mxGeometry>
        </mxCell>
        <mxCell id="SnBBirL9_vrozBAmLotU-38" value="" style="endArrow=none;html=1;" parent="SnBBirL9_vrozBAmLotU-1" edge="1">
          <mxGeometry width="50" height="50" relative="1" as="geometry">
            <mxPoint x="520" y="710" as="sourcePoint" />
            <mxPoint x="520" y="695" as="targetPoint" />
          </mxGeometry>
        </mxCell>
        <mxCell id="SnBBirL9_vrozBAmLotU-39" value="128.32.2.122" style="text;html=1;strokeColor=none;fillColor=none;align=center;verticalAlign=middle;whiteSpace=wrap;rounded=0;labelBackgroundColor=none;" parent="SnBBirL9_vrozBAmLotU-1" vertex="1">
          <mxGeometry x="500" y="705" width="40" height="20" as="geometry" />
        </mxCell>
        <mxCell id="SnBBirL9_vrozBAmLotU-40" value="" style="endArrow=openThin;html=1;entryX=1;entryY=0.5;entryDx=0;entryDy=0;exitX=0;exitY=0.5;exitDx=0;exitDy=0;endFill=0;" parent="SnBBirL9_vrozBAmLotU-1" source="SnBBirL9_vrozBAmLotU-41" target="SnBBirL9_vrozBAmLotU-4" edge="1">
          <mxGeometry width="50" height="50" relative="1" as="geometry">
            <mxPoint x="390" y="520" as="sourcePoint" />
            <mxPoint x="440" y="470" as="targetPoint" />
          </mxGeometry>
        </mxCell>
        <mxCell id="SnBBirL9_vrozBAmLotU-41" value="128.32.2.9" style="text;html=1;strokeColor=none;fillColor=none;align=left;verticalAlign=middle;whiteSpace=wrap;rounded=0;labelBackgroundColor=none;" parent="SnBBirL9_vrozBAmLotU-1" vertex="1">
          <mxGeometry x="535" y="585" width="75" height="20" as="geometry" />
        </mxCell>
        <mxCell id="SnBBirL9_vrozBAmLotU-42" value="" style="endArrow=classicThin;html=1;entryX=0.25;entryY=1;entryDx=0;entryDy=0;exitX=0.25;exitY=0;exitDx=0;exitDy=0;endFill=1;" parent="SnBBirL9_vrozBAmLotU-1" source="SnBBirL9_vrozBAmLotU-43" target="SnBBirL9_vrozBAmLotU-4" edge="1">
          <mxGeometry width="50" height="50" relative="1" as="geometry">
            <mxPoint x="390" y="650" as="sourcePoint" />
            <mxPoint x="440" y="600" as="targetPoint" />
          </mxGeometry>
        </mxCell>
        <mxCell id="SnBBirL9_vrozBAmLotU-43" value="128.32.1.1" style="text;html=1;strokeColor=none;fillColor=none;align=center;verticalAlign=middle;whiteSpace=wrap;rounded=0;labelBackgroundColor=none;" parent="SnBBirL9_vrozBAmLotU-1" vertex="1">
          <mxGeometry x="394" y="680" width="70" height="20" as="geometry" />
        </mxCell>
        <mxCell id="SnBBirL9_vrozBAmLotU-44" value="" style="endArrow=classic;startArrow=classic;html=1;" parent="SnBBirL9_vrozBAmLotU-1" edge="1">
          <mxGeometry width="50" height="50" relative="1" as="geometry">
            <mxPoint x="414" y="585" as="sourcePoint" />
            <mxPoint x="414" y="510" as="targetPoint" />
          </mxGeometry>
        </mxCell>
        <mxCell id="SnBBirL9_vrozBAmLotU-45" value="前往或来自128.32.x.x的所有流量（都要经过边界路由）" style="text;html=1;strokeColor=none;fillColor=none;align=center;verticalAlign=middle;whiteSpace=wrap;rounded=0;labelBackgroundColor=none;" parent="SnBBirL9_vrozBAmLotU-1" vertex="1">
          <mxGeometry x="414" y="525" width="186" height="40" as="geometry" />
        </mxCell>
        <mxCell id="SnBBirL9_vrozBAmLotU-46" value="" style="endArrow=classicThin;html=1;entryX=0.5;entryY=0;entryDx=0;entryDy=0;exitX=0.75;exitY=1;exitDx=0;exitDy=0;endFill=1;" parent="SnBBirL9_vrozBAmLotU-1" source="SnBBirL9_vrozBAmLotU-47" target="SnBBirL9_vrozBAmLotU-4" edge="1">
          <mxGeometry width="50" height="50" relative="1" as="geometry">
            <mxPoint x="580" y="570" as="sourcePoint" />
            <mxPoint x="630" y="520" as="targetPoint" />
          </mxGeometry>
        </mxCell>
        <mxCell id="SnBBirL9_vrozBAmLotU-47" value="137.164.23.30" style="text;html=1;strokeColor=none;fillColor=none;align=center;verticalAlign=middle;whiteSpace=wrap;rounded=0;labelBackgroundColor=none;" parent="SnBBirL9_vrozBAmLotU-1" vertex="1">
          <mxGeometry x="264" y="500" width="90" height="20" as="geometry" />
        </mxCell>
        <mxCell id="SnBBirL9_vrozBAmLotU-48" value="&lt;b&gt;&lt;font style=&quot;font-size: 20px&quot;&gt;Internet&lt;/font&gt;&lt;/b&gt;" style="text;html=1;strokeColor=none;fillColor=none;align=center;verticalAlign=middle;whiteSpace=wrap;rounded=0;labelBackgroundColor=none;" parent="SnBBirL9_vrozBAmLotU-1" vertex="1">
          <mxGeometry x="400" y="460" width="40" height="20" as="geometry" />
        </mxCell>
      </root>
    </mxGraphModel>
  </diagram>
  <diagram id="PGcZEgTH41Fk_7a_QXO1" name="第 4 页">
    <mxGraphModel dx="1158" dy="618" grid="1" gridSize="10" guides="1" tooltips="1" connect="1" arrows="1" fold="1" page="1" pageScale="1" pageWidth="827" pageHeight="1169" math="0" shadow="0">
      <root>
        <mxCell id="oAt6fSGEURBBSBoEG1hx-0" />
        <mxCell id="oAt6fSGEURBBSBoEG1hx-1" parent="oAt6fSGEURBBSBoEG1hx-0" />
        <mxCell id="mMda1aU-KgBFpwsQGE3--0" value="" style="whiteSpace=wrap;html=1;align=right;labelBackgroundColor=#FFFFFF;fillColor=#dae8fc;strokeColor=#6c8ebf;" vertex="1" parent="oAt6fSGEURBBSBoEG1hx-1">
          <mxGeometry x="80" y="390" width="640" height="570" as="geometry" />
        </mxCell>
        <mxCell id="mMda1aU-KgBFpwsQGE3--1" value="" style="rounded=0;whiteSpace=wrap;html=1;labelBackgroundColor=#FFFFFF;align=right;fillColor=#d5e8d4;strokeColor=#82b366;" vertex="1" parent="oAt6fSGEURBBSBoEG1hx-1">
          <mxGeometry x="124" y="560" width="556" height="360" as="geometry" />
        </mxCell>
        <mxCell id="mMda1aU-KgBFpwsQGE3--2" value="站点边界路由器" style="rounded=0;whiteSpace=wrap;html=1;labelBackgroundColor=none;align=center;fillColor=#f5f5f5;strokeColor=#666666;fontColor=#333333;" vertex="1" parent="oAt6fSGEURBBSBoEG1hx-1">
          <mxGeometry x="354" y="585" width="120" height="60" as="geometry" />
        </mxCell>
        <mxCell id="mMda1aU-KgBFpwsQGE3--3" value="" style="endArrow=none;html=1;entryX=0.133;entryY=1.033;entryDx=0;entryDy=0;edgeStyle=elbowEdgeStyle;elbow=vertical;rounded=0;entryPerimeter=0;" edge="1" parent="oAt6fSGEURBBSBoEG1hx-1" target="mMda1aU-KgBFpwsQGE3--2">
          <mxGeometry width="50" height="50" relative="1" as="geometry">
            <mxPoint x="310" y="690" as="sourcePoint" />
            <mxPoint x="350" y="620" as="targetPoint" />
          </mxGeometry>
        </mxCell>
        <mxCell id="mMda1aU-KgBFpwsQGE3--4" value="" style="endArrow=none;html=1;entryX=1;entryY=0.5;entryDx=0;entryDy=0;edgeStyle=elbowEdgeStyle;elbow=vertical;rounded=0;" edge="1" parent="oAt6fSGEURBBSBoEG1hx-1" target="mMda1aU-KgBFpwsQGE3--2">
          <mxGeometry width="50" height="50" relative="1" as="geometry">
            <mxPoint x="500" y="690" as="sourcePoint" />
            <mxPoint x="390" y="620" as="targetPoint" />
            <Array as="points">
              <mxPoint x="500" y="615" />
            </Array>
          </mxGeometry>
        </mxCell>
        <mxCell id="mMda1aU-KgBFpwsQGE3--5" value="128.32.x.x" style="text;html=1;strokeColor=none;fillColor=none;align=center;verticalAlign=middle;whiteSpace=wrap;rounded=0;labelBackgroundColor=none;" vertex="1" parent="oAt6fSGEURBBSBoEG1hx-1">
          <mxGeometry x="140" y="565" width="40" height="20" as="geometry" />
        </mxCell>
        <mxCell id="mMda1aU-KgBFpwsQGE3--6" value="" style="shape=filledEdge;rounded=0;fixDash=1;endArrow=none;strokeWidth=10;fillColor=#f5f5f5;edgeStyle=orthogonalEdgeStyle;strokeColor=#666666;" edge="1" parent="oAt6fSGEURBBSBoEG1hx-1">
          <mxGeometry width="60" height="40" relative="1" as="geometry">
            <mxPoint x="180" y="690" as="sourcePoint" />
            <mxPoint x="320" y="690" as="targetPoint" />
          </mxGeometry>
        </mxCell>
        <mxCell id="mMda1aU-KgBFpwsQGE3--7" value="128.32.1.x" style="text;html=1;strokeColor=none;fillColor=none;align=center;verticalAlign=middle;whiteSpace=wrap;rounded=0;labelBackgroundColor=none;" vertex="1" parent="oAt6fSGEURBBSBoEG1hx-1">
          <mxGeometry x="230" y="650" width="40" height="20" as="geometry" />
        </mxCell>
        <mxCell id="mMda1aU-KgBFpwsQGE3--8" value="" style="endArrow=none;html=1;" edge="1" parent="oAt6fSGEURBBSBoEG1hx-1">
          <mxGeometry width="50" height="50" relative="1" as="geometry">
            <mxPoint x="190" y="685" as="sourcePoint" />
            <mxPoint x="190" y="670" as="targetPoint" />
          </mxGeometry>
        </mxCell>
        <mxCell id="mMda1aU-KgBFpwsQGE3--9" value="" style="endArrow=none;html=1;" edge="1" parent="oAt6fSGEURBBSBoEG1hx-1">
          <mxGeometry width="50" height="50" relative="1" as="geometry">
            <mxPoint x="240" y="685" as="sourcePoint" />
            <mxPoint x="240" y="670" as="targetPoint" />
          </mxGeometry>
        </mxCell>
        <mxCell id="mMda1aU-KgBFpwsQGE3--10" value="" style="endArrow=none;html=1;" edge="1" parent="oAt6fSGEURBBSBoEG1hx-1">
          <mxGeometry width="50" height="50" relative="1" as="geometry">
            <mxPoint x="270" y="710" as="sourcePoint" />
            <mxPoint x="270" y="695" as="targetPoint" />
          </mxGeometry>
        </mxCell>
        <mxCell id="mMda1aU-KgBFpwsQGE3--11" value="" style="endArrow=none;html=1;" edge="1" parent="oAt6fSGEURBBSBoEG1hx-1">
          <mxGeometry width="50" height="50" relative="1" as="geometry">
            <mxPoint x="210" y="710" as="sourcePoint" />
            <mxPoint x="210" y="695" as="targetPoint" />
          </mxGeometry>
        </mxCell>
        <mxCell id="mMda1aU-KgBFpwsQGE3--12" value="128.32.1.14" style="text;html=1;strokeColor=none;fillColor=none;align=center;verticalAlign=middle;whiteSpace=wrap;rounded=0;labelBackgroundColor=none;" vertex="1" parent="oAt6fSGEURBBSBoEG1hx-1">
          <mxGeometry x="190" y="705" width="40" height="20" as="geometry" />
        </mxCell>
        <mxCell id="mMda1aU-KgBFpwsQGE3--15" value="" style="shape=filledEdge;rounded=0;fixDash=1;endArrow=none;strokeWidth=10;fillColor=#f5f5f5;edgeStyle=orthogonalEdgeStyle;strokeColor=#666666;" edge="1" parent="oAt6fSGEURBBSBoEG1hx-1">
          <mxGeometry width="60" height="40" relative="1" as="geometry">
            <mxPoint x="490" y="690" as="sourcePoint" />
            <mxPoint x="630" y="690" as="targetPoint" />
          </mxGeometry>
        </mxCell>
        <mxCell id="mMda1aU-KgBFpwsQGE3--16" value="128.32.2.x&lt;br&gt;(128.32.2.0/24)" style="text;html=1;strokeColor=none;fillColor=none;align=center;verticalAlign=middle;whiteSpace=wrap;rounded=0;labelBackgroundColor=none;" vertex="1" parent="oAt6fSGEURBBSBoEG1hx-1">
          <mxGeometry x="530" y="630" width="80" height="40" as="geometry" />
        </mxCell>
        <mxCell id="mMda1aU-KgBFpwsQGE3--17" value="" style="endArrow=none;html=1;exitX=0.855;exitY=0.394;exitDx=0;exitDy=0;exitPerimeter=0;" edge="1" parent="oAt6fSGEURBBSBoEG1hx-1">
          <mxGeometry width="50" height="50" relative="1" as="geometry">
            <mxPoint x="619.9000000000001" y="670.02" as="sourcePoint" />
            <mxPoint x="620" y="685" as="targetPoint" />
          </mxGeometry>
        </mxCell>
        <mxCell id="mMda1aU-KgBFpwsQGE3--18" value="" style="endArrow=none;html=1;" edge="1" parent="oAt6fSGEURBBSBoEG1hx-1">
          <mxGeometry width="50" height="50" relative="1" as="geometry">
            <mxPoint x="550" y="685" as="sourcePoint" />
            <mxPoint x="550" y="670" as="targetPoint" />
          </mxGeometry>
        </mxCell>
        <mxCell id="mMda1aU-KgBFpwsQGE3--19" value="" style="endArrow=none;html=1;" edge="1" parent="oAt6fSGEURBBSBoEG1hx-1">
          <mxGeometry width="50" height="50" relative="1" as="geometry">
            <mxPoint x="580" y="710" as="sourcePoint" />
            <mxPoint x="580" y="695" as="targetPoint" />
          </mxGeometry>
        </mxCell>
        <mxCell id="mMda1aU-KgBFpwsQGE3--20" value="" style="endArrow=none;html=1;exitX=0.5;exitY=0;exitDx=0;exitDy=0;" edge="1" parent="oAt6fSGEURBBSBoEG1hx-1" source="mMda1aU-KgBFpwsQGE3--53">
          <mxGeometry width="50" height="50" relative="1" as="geometry">
            <mxPoint x="520" y="710" as="sourcePoint" />
            <mxPoint x="522" y="695" as="targetPoint" />
          </mxGeometry>
        </mxCell>
        <mxCell id="mMda1aU-KgBFpwsQGE3--22" value="" style="endArrow=openThin;html=1;entryX=1;entryY=0.5;entryDx=0;entryDy=0;exitX=0;exitY=0.5;exitDx=0;exitDy=0;endFill=0;" edge="1" parent="oAt6fSGEURBBSBoEG1hx-1" source="mMda1aU-KgBFpwsQGE3--23" target="mMda1aU-KgBFpwsQGE3--2">
          <mxGeometry width="50" height="50" relative="1" as="geometry">
            <mxPoint x="390" y="520" as="sourcePoint" />
            <mxPoint x="440" y="470" as="targetPoint" />
          </mxGeometry>
        </mxCell>
        <mxCell id="mMda1aU-KgBFpwsQGE3--23" value="128.32.2.9/24" style="text;html=1;strokeColor=none;fillColor=none;align=left;verticalAlign=middle;whiteSpace=wrap;rounded=0;labelBackgroundColor=none;" vertex="1" parent="oAt6fSGEURBBSBoEG1hx-1">
          <mxGeometry x="535" y="585" width="75" height="20" as="geometry" />
        </mxCell>
        <mxCell id="mMda1aU-KgBFpwsQGE3--24" value="" style="endArrow=classicThin;html=1;entryX=0;entryY=0.75;entryDx=0;entryDy=0;exitX=0.299;exitY=0.153;exitDx=0;exitDy=0;endFill=1;exitPerimeter=0;" edge="1" parent="oAt6fSGEURBBSBoEG1hx-1" source="mMda1aU-KgBFpwsQGE3--1" target="mMda1aU-KgBFpwsQGE3--2">
          <mxGeometry width="50" height="50" relative="1" as="geometry">
            <mxPoint x="390" y="650" as="sourcePoint" />
            <mxPoint x="440" y="600" as="targetPoint" />
          </mxGeometry>
        </mxCell>
        <mxCell id="mMda1aU-KgBFpwsQGE3--25" value="128.32.1.1/24" style="text;html=1;strokeColor=none;fillColor=none;align=center;verticalAlign=middle;whiteSpace=wrap;rounded=0;labelBackgroundColor=none;" vertex="1" parent="oAt6fSGEURBBSBoEG1hx-1">
          <mxGeometry x="220" y="600" width="70" height="20" as="geometry" />
        </mxCell>
        <mxCell id="mMda1aU-KgBFpwsQGE3--26" value="" style="endArrow=classic;startArrow=classic;html=1;" edge="1" parent="oAt6fSGEURBBSBoEG1hx-1">
          <mxGeometry width="50" height="50" relative="1" as="geometry">
            <mxPoint x="414" y="585" as="sourcePoint" />
            <mxPoint x="414" y="510" as="targetPoint" />
          </mxGeometry>
        </mxCell>
        <mxCell id="mMda1aU-KgBFpwsQGE3--27" value="前往或来自128.32.x.x的所有流量（都要经过边界路由）" style="text;html=1;strokeColor=none;fillColor=none;align=center;verticalAlign=middle;whiteSpace=wrap;rounded=0;labelBackgroundColor=none;" vertex="1" parent="oAt6fSGEURBBSBoEG1hx-1">
          <mxGeometry x="414" y="525" width="186" height="40" as="geometry" />
        </mxCell>
        <mxCell id="mMda1aU-KgBFpwsQGE3--28" value="" style="endArrow=classicThin;html=1;entryX=0.5;entryY=0;entryDx=0;entryDy=0;exitX=0.75;exitY=1;exitDx=0;exitDy=0;endFill=1;" edge="1" parent="oAt6fSGEURBBSBoEG1hx-1" source="mMda1aU-KgBFpwsQGE3--29" target="mMda1aU-KgBFpwsQGE3--2">
          <mxGeometry width="50" height="50" relative="1" as="geometry">
            <mxPoint x="580" y="570" as="sourcePoint" />
            <mxPoint x="630" y="520" as="targetPoint" />
          </mxGeometry>
        </mxCell>
        <mxCell id="mMda1aU-KgBFpwsQGE3--29" value="137.164.23.30/32" style="text;html=1;strokeColor=none;fillColor=none;align=center;verticalAlign=middle;whiteSpace=wrap;rounded=0;labelBackgroundColor=none;" vertex="1" parent="oAt6fSGEURBBSBoEG1hx-1">
          <mxGeometry x="264" y="500" width="90" height="20" as="geometry" />
        </mxCell>
        <mxCell id="mMda1aU-KgBFpwsQGE3--30" value="&lt;b&gt;&lt;font style=&quot;font-size: 20px&quot;&gt;Internet&lt;/font&gt;&lt;/b&gt;" style="text;html=1;strokeColor=none;fillColor=none;align=center;verticalAlign=middle;whiteSpace=wrap;rounded=0;labelBackgroundColor=none;" vertex="1" parent="oAt6fSGEURBBSBoEG1hx-1">
          <mxGeometry x="400" y="460" width="40" height="20" as="geometry" />
        </mxCell>
        <mxCell id="mMda1aU-KgBFpwsQGE3--53" value="" style="rounded=0;whiteSpace=wrap;html=1;" vertex="1" parent="oAt6fSGEURBBSBoEG1hx-1">
          <mxGeometry x="474" y="740" width="96" height="40" as="geometry" />
        </mxCell>
        <mxCell id="mMda1aU-KgBFpwsQGE3--54" value="内部路由器" style="text;html=1;strokeColor=none;fillColor=none;align=center;verticalAlign=middle;whiteSpace=wrap;rounded=0;" vertex="1" parent="oAt6fSGEURBBSBoEG1hx-1">
          <mxGeometry x="474" y="750" width="90" height="20" as="geometry" />
        </mxCell>
        <mxCell id="mMda1aU-KgBFpwsQGE3--55" value="" style="endArrow=none;html=1;entryX=0.25;entryY=1;entryDx=0;entryDy=0;exitX=0.468;exitY=0.556;exitDx=0;exitDy=0;exitPerimeter=0;" edge="1" parent="oAt6fSGEURBBSBoEG1hx-1" source="mMda1aU-KgBFpwsQGE3--1" target="mMda1aU-KgBFpwsQGE3--2">
          <mxGeometry width="50" height="50" relative="1" as="geometry">
            <mxPoint x="330" y="750" as="sourcePoint" />
            <mxPoint x="380" y="700" as="targetPoint" />
          </mxGeometry>
        </mxCell>
        <mxCell id="mMda1aU-KgBFpwsQGE3--56" value="" style="group" vertex="1" connectable="0" parent="oAt6fSGEURBBSBoEG1hx-1">
          <mxGeometry x="300" y="745" width="90" height="40" as="geometry" />
        </mxCell>
        <mxCell id="mMda1aU-KgBFpwsQGE3--31" value="" style="shape=filledEdge;rounded=0;fixDash=1;endArrow=none;strokeWidth=10;fillColor=#f5f5f5;edgeStyle=orthogonalEdgeStyle;strokeColor=#666666;" edge="1" parent="mMda1aU-KgBFpwsQGE3--56">
          <mxGeometry width="60" height="40" relative="1" as="geometry">
            <mxPoint y="20" as="sourcePoint" />
            <mxPoint x="90" y="20" as="targetPoint" />
          </mxGeometry>
        </mxCell>
        <mxCell id="mMda1aU-KgBFpwsQGE3--32" value="" style="endArrow=none;html=1;" edge="1" parent="mMda1aU-KgBFpwsQGE3--56">
          <mxGeometry width="50" height="50" relative="1" as="geometry">
            <mxPoint x="60" y="15" as="sourcePoint" />
            <mxPoint x="60" as="targetPoint" />
          </mxGeometry>
        </mxCell>
        <mxCell id="mMda1aU-KgBFpwsQGE3--33" value="" style="endArrow=none;html=1;" edge="1" parent="mMda1aU-KgBFpwsQGE3--56">
          <mxGeometry width="50" height="50" relative="1" as="geometry">
            <mxPoint x="10" y="15" as="sourcePoint" />
            <mxPoint x="10" as="targetPoint" />
          </mxGeometry>
        </mxCell>
        <mxCell id="mMda1aU-KgBFpwsQGE3--34" value="" style="endArrow=none;html=1;" edge="1" parent="mMda1aU-KgBFpwsQGE3--56">
          <mxGeometry width="50" height="50" relative="1" as="geometry">
            <mxPoint x="40" y="40" as="sourcePoint" />
            <mxPoint x="40" y="25" as="targetPoint" />
          </mxGeometry>
        </mxCell>
        <mxCell id="mMda1aU-KgBFpwsQGE3--36" value="" style="endArrow=none;html=1;" edge="1" parent="mMda1aU-KgBFpwsQGE3--56">
          <mxGeometry width="50" height="50" relative="1" as="geometry">
            <mxPoint x="80" y="40" as="sourcePoint" />
            <mxPoint x="80" y="25" as="targetPoint" />
          </mxGeometry>
        </mxCell>
        <mxCell id="mMda1aU-KgBFpwsQGE3--57" value="" style="endArrow=none;html=1;entryX=0.25;entryY=1;entryDx=0;entryDy=0;" edge="1" parent="oAt6fSGEURBBSBoEG1hx-1" target="mMda1aU-KgBFpwsQGE3--53">
          <mxGeometry width="50" height="50" relative="1" as="geometry">
            <mxPoint x="498" y="830" as="sourcePoint" />
            <mxPoint x="540" y="790" as="targetPoint" />
          </mxGeometry>
        </mxCell>
        <mxCell id="mMda1aU-KgBFpwsQGE3--58" value="" style="group" vertex="1" connectable="0" parent="oAt6fSGEURBBSBoEG1hx-1">
          <mxGeometry x="420" y="810" width="90" height="40" as="geometry" />
        </mxCell>
        <mxCell id="mMda1aU-KgBFpwsQGE3--48" value="" style="shape=filledEdge;rounded=0;fixDash=1;endArrow=none;strokeWidth=10;fillColor=#f5f5f5;edgeStyle=orthogonalEdgeStyle;strokeColor=#666666;" edge="1" parent="mMda1aU-KgBFpwsQGE3--58">
          <mxGeometry width="60" height="40" relative="1" as="geometry">
            <mxPoint y="20" as="sourcePoint" />
            <mxPoint x="90" y="20" as="targetPoint" />
          </mxGeometry>
        </mxCell>
        <mxCell id="mMda1aU-KgBFpwsQGE3--49" value="" style="endArrow=none;html=1;" edge="1" parent="mMda1aU-KgBFpwsQGE3--58">
          <mxGeometry width="50" height="50" relative="1" as="geometry">
            <mxPoint x="60" y="15" as="sourcePoint" />
            <mxPoint x="60" as="targetPoint" />
          </mxGeometry>
        </mxCell>
        <mxCell id="mMda1aU-KgBFpwsQGE3--50" value="" style="endArrow=none;html=1;" edge="1" parent="mMda1aU-KgBFpwsQGE3--58">
          <mxGeometry width="50" height="50" relative="1" as="geometry">
            <mxPoint x="10" y="15" as="sourcePoint" />
            <mxPoint x="10" as="targetPoint" />
          </mxGeometry>
        </mxCell>
        <mxCell id="mMda1aU-KgBFpwsQGE3--51" value="" style="endArrow=none;html=1;" edge="1" parent="mMda1aU-KgBFpwsQGE3--58">
          <mxGeometry width="50" height="50" relative="1" as="geometry">
            <mxPoint x="40" y="40" as="sourcePoint" />
            <mxPoint x="40" y="25" as="targetPoint" />
          </mxGeometry>
        </mxCell>
        <mxCell id="mMda1aU-KgBFpwsQGE3--52" value="" style="endArrow=none;html=1;" edge="1" parent="mMda1aU-KgBFpwsQGE3--58">
          <mxGeometry width="50" height="50" relative="1" as="geometry">
            <mxPoint x="80" y="40" as="sourcePoint" />
            <mxPoint x="80" y="25" as="targetPoint" />
          </mxGeometry>
        </mxCell>
        <mxCell id="mMda1aU-KgBFpwsQGE3--59" value="128.32.230.{128~191}&lt;br&gt;(128.32.230.128/26)" style="text;html=1;strokeColor=none;fillColor=none;align=left;verticalAlign=middle;whiteSpace=wrap;rounded=0;" vertex="1" parent="oAt6fSGEURBBSBoEG1hx-1">
          <mxGeometry x="265" y="785" width="135" height="40" as="geometry" />
        </mxCell>
        <mxCell id="mMda1aU-KgBFpwsQGE3--60" value="128.32.2.{128~255}&lt;br&gt;128.32.2.128/25" style="text;html=1;strokeColor=none;fillColor=none;align=center;verticalAlign=middle;whiteSpace=wrap;rounded=0;" vertex="1" parent="oAt6fSGEURBBSBoEG1hx-1">
          <mxGeometry x="474" y="850" width="116" height="40" as="geometry" />
        </mxCell>
        <mxCell id="mMda1aU-KgBFpwsQGE3--61" value="128.32.2.130/25" style="text;html=1;strokeColor=none;fillColor=none;align=center;verticalAlign=middle;whiteSpace=wrap;rounded=0;" vertex="1" parent="oAt6fSGEURBBSBoEG1hx-1">
          <mxGeometry x="370" y="850" width="100" height="20" as="geometry" />
        </mxCell>
        <mxCell id="mMda1aU-KgBFpwsQGE3--62" value="128.32.0.0/16" style="text;html=1;strokeColor=none;fillColor=none;align=center;verticalAlign=middle;whiteSpace=wrap;rounded=0;" vertex="1" parent="oAt6fSGEURBBSBoEG1hx-1">
          <mxGeometry x="434" y="565" width="86" height="20" as="geometry" />
        </mxCell>
        <mxCell id="mMda1aU-KgBFpwsQGE3--63" value="128.32.2.129/25" style="text;html=1;strokeColor=none;fillColor=none;align=center;verticalAlign=middle;whiteSpace=wrap;rounded=0;" vertex="1" parent="oAt6fSGEURBBSBoEG1hx-1">
          <mxGeometry x="560" y="805" width="90" height="20" as="geometry" />
        </mxCell>
        <mxCell id="mMda1aU-KgBFpwsQGE3--64" value="" style="endArrow=classicThin;html=1;exitX=0;exitY=0.5;exitDx=0;exitDy=0;endFill=1;" edge="1" parent="oAt6fSGEURBBSBoEG1hx-1" source="mMda1aU-KgBFpwsQGE3--63">
          <mxGeometry width="50" height="50" relative="1" as="geometry">
            <mxPoint x="500" y="830" as="sourcePoint" />
            <mxPoint x="500" y="780" as="targetPoint" />
          </mxGeometry>
        </mxCell>
        <mxCell id="mMda1aU-KgBFpwsQGE3--67" value="" style="endArrow=classicThin;html=1;entryX=0.5;entryY=0;entryDx=0;entryDy=0;endFill=1;exitX=0;exitY=0.5;exitDx=0;exitDy=0;exitPerimeter=0;" edge="1" parent="oAt6fSGEURBBSBoEG1hx-1" source="mMda1aU-KgBFpwsQGE3--68" target="mMda1aU-KgBFpwsQGE3--53">
          <mxGeometry width="50" height="50" relative="1" as="geometry">
            <mxPoint x="600" y="770" as="sourcePoint" />
            <mxPoint x="520" y="710" as="targetPoint" />
          </mxGeometry>
        </mxCell>
        <mxCell id="mMda1aU-KgBFpwsQGE3--68" value="128.32.2.126/24" style="text;html=1;strokeColor=none;fillColor=none;align=center;verticalAlign=middle;whiteSpace=wrap;rounded=0;" vertex="1" parent="oAt6fSGEURBBSBoEG1hx-1">
          <mxGeometry x="580" y="765" width="100" height="20" as="geometry" />
        </mxCell>
      </root>
    </mxGraphModel>
  </diagram>
  <diagram id="FQAdskooMB0m3RFyRlSH" name="第 5 页">
    <mxGraphModel dx="2026" dy="1082" grid="1" gridSize="10" guides="1" tooltips="1" connect="1" arrows="1" fold="1" page="1" pageScale="1" pageWidth="827" pageHeight="1169" math="0" shadow="0">
      <root>
        <mxCell id="VvmFpE21oRTmLU_xN0fs-0" />
        <mxCell id="VvmFpE21oRTmLU_xN0fs-1" parent="VvmFpE21oRTmLU_xN0fs-0" />
        <mxCell id="y3CxF9oAoQ71pDCY_Q7x-1" value="" style="rounded=0;whiteSpace=wrap;html=1;labelBackgroundColor=#FFFFFF;align=right;fillColor=#d5e8d4;strokeColor=#82b366;" vertex="1" parent="VvmFpE21oRTmLU_xN0fs-1">
          <mxGeometry x="240" y="560" width="440" height="360" as="geometry" />
        </mxCell>
        <mxCell id="y3CxF9oAoQ71pDCY_Q7x-52" style="edgeStyle=orthogonalEdgeStyle;rounded=0;orthogonalLoop=1;jettySize=auto;html=1;exitX=0.75;exitY=1;exitDx=0;exitDy=0;endArrow=classicThin;endFill=1;" edge="1" parent="VvmFpE21oRTmLU_xN0fs-1" source="y3CxF9oAoQ71pDCY_Q7x-2">
          <mxGeometry relative="1" as="geometry">
            <mxPoint x="500" y="690" as="targetPoint" />
          </mxGeometry>
        </mxCell>
        <mxCell id="y3CxF9oAoQ71pDCY_Q7x-2" value="路由器" style="rounded=0;whiteSpace=wrap;html=1;labelBackgroundColor=none;align=center;fillColor=#f5f5f5;strokeColor=#666666;fontColor=#333333;" vertex="1" parent="VvmFpE21oRTmLU_xN0fs-1">
          <mxGeometry x="354" y="585" width="120" height="60" as="geometry" />
        </mxCell>
        <mxCell id="y3CxF9oAoQ71pDCY_Q7x-5" value="192.168.26.x" style="text;html=1;strokeColor=none;fillColor=none;align=center;verticalAlign=middle;whiteSpace=wrap;rounded=0;labelBackgroundColor=none;" vertex="1" parent="VvmFpE21oRTmLU_xN0fs-1">
          <mxGeometry x="260" y="565" width="40" height="20" as="geometry" />
        </mxCell>
        <mxCell id="y3CxF9oAoQ71pDCY_Q7x-13" value="" style="shape=filledEdge;rounded=0;fixDash=1;endArrow=none;strokeWidth=10;fillColor=#f5f5f5;edgeStyle=orthogonalEdgeStyle;strokeColor=#666666;" edge="1" parent="VvmFpE21oRTmLU_xN0fs-1">
          <mxGeometry width="60" height="40" relative="1" as="geometry">
            <mxPoint x="490" y="690" as="sourcePoint" />
            <mxPoint x="630" y="690" as="targetPoint" />
          </mxGeometry>
        </mxCell>
        <mxCell id="y3CxF9oAoQ71pDCY_Q7x-14" value="192.168.26.129&lt;br&gt;(192.168.26.0/24)" style="text;html=1;strokeColor=none;fillColor=none;align=center;verticalAlign=middle;whiteSpace=wrap;rounded=0;labelBackgroundColor=none;" vertex="1" parent="VvmFpE21oRTmLU_xN0fs-1">
          <mxGeometry x="530" y="630" width="80" height="40" as="geometry" />
        </mxCell>
        <mxCell id="y3CxF9oAoQ71pDCY_Q7x-15" value="" style="endArrow=none;html=1;exitX=0.855;exitY=0.394;exitDx=0;exitDy=0;exitPerimeter=0;" edge="1" parent="VvmFpE21oRTmLU_xN0fs-1">
          <mxGeometry width="50" height="50" relative="1" as="geometry">
            <mxPoint x="619.9000000000001" y="670.02" as="sourcePoint" />
            <mxPoint x="620" y="685" as="targetPoint" />
          </mxGeometry>
        </mxCell>
        <mxCell id="y3CxF9oAoQ71pDCY_Q7x-16" value="" style="endArrow=none;html=1;" edge="1" parent="VvmFpE21oRTmLU_xN0fs-1">
          <mxGeometry width="50" height="50" relative="1" as="geometry">
            <mxPoint x="550" y="685" as="sourcePoint" />
            <mxPoint x="550" y="670" as="targetPoint" />
          </mxGeometry>
        </mxCell>
        <mxCell id="y3CxF9oAoQ71pDCY_Q7x-17" value="" style="endArrow=none;html=1;" edge="1" parent="VvmFpE21oRTmLU_xN0fs-1">
          <mxGeometry width="50" height="50" relative="1" as="geometry">
            <mxPoint x="580" y="710" as="sourcePoint" />
            <mxPoint x="580" y="695" as="targetPoint" />
          </mxGeometry>
        </mxCell>
        <mxCell id="y3CxF9oAoQ71pDCY_Q7x-18" value="" style="endArrow=none;html=1;exitX=0.5;exitY=0;exitDx=0;exitDy=0;" edge="1" parent="VvmFpE21oRTmLU_xN0fs-1" source="y3CxF9oAoQ71pDCY_Q7x-28">
          <mxGeometry width="50" height="50" relative="1" as="geometry">
            <mxPoint x="520" y="710" as="sourcePoint" />
            <mxPoint x="522" y="695" as="targetPoint" />
          </mxGeometry>
        </mxCell>
        <mxCell id="y3CxF9oAoQ71pDCY_Q7x-20" value="192.168.26.1" style="text;html=1;strokeColor=none;fillColor=none;align=left;verticalAlign=middle;whiteSpace=wrap;rounded=0;labelBackgroundColor=none;" vertex="1" parent="VvmFpE21oRTmLU_xN0fs-1">
          <mxGeometry x="481.5" y="585" width="75" height="20" as="geometry" />
        </mxCell>
        <mxCell id="y3CxF9oAoQ71pDCY_Q7x-28" value="" style="rounded=0;whiteSpace=wrap;html=1;" vertex="1" parent="VvmFpE21oRTmLU_xN0fs-1">
          <mxGeometry x="474" y="740" width="96" height="40" as="geometry" />
        </mxCell>
        <mxCell id="y3CxF9oAoQ71pDCY_Q7x-29" value="路由器" style="text;html=1;strokeColor=none;fillColor=none;align=center;verticalAlign=middle;whiteSpace=wrap;rounded=0;" vertex="1" parent="VvmFpE21oRTmLU_xN0fs-1">
          <mxGeometry x="474" y="750" width="90" height="20" as="geometry" />
        </mxCell>
        <mxCell id="y3CxF9oAoQ71pDCY_Q7x-37" value="" style="endArrow=none;html=1;entryX=0.25;entryY=1;entryDx=0;entryDy=0;" edge="1" parent="VvmFpE21oRTmLU_xN0fs-1" target="y3CxF9oAoQ71pDCY_Q7x-28">
          <mxGeometry width="50" height="50" relative="1" as="geometry">
            <mxPoint x="498" y="830" as="sourcePoint" />
            <mxPoint x="540" y="790" as="targetPoint" />
          </mxGeometry>
        </mxCell>
        <mxCell id="y3CxF9oAoQ71pDCY_Q7x-38" value="" style="group" vertex="1" connectable="0" parent="VvmFpE21oRTmLU_xN0fs-1">
          <mxGeometry x="420" y="810" width="90" height="40" as="geometry" />
        </mxCell>
        <mxCell id="y3CxF9oAoQ71pDCY_Q7x-39" value="" style="shape=filledEdge;rounded=0;fixDash=1;endArrow=none;strokeWidth=10;fillColor=#f5f5f5;edgeStyle=orthogonalEdgeStyle;strokeColor=#666666;" edge="1" parent="y3CxF9oAoQ71pDCY_Q7x-38">
          <mxGeometry width="60" height="40" relative="1" as="geometry">
            <mxPoint y="20" as="sourcePoint" />
            <mxPoint x="90" y="20" as="targetPoint" />
          </mxGeometry>
        </mxCell>
        <mxCell id="y3CxF9oAoQ71pDCY_Q7x-40" value="" style="endArrow=none;html=1;" edge="1" parent="y3CxF9oAoQ71pDCY_Q7x-38">
          <mxGeometry width="50" height="50" relative="1" as="geometry">
            <mxPoint x="60" y="15" as="sourcePoint" />
            <mxPoint x="60" as="targetPoint" />
          </mxGeometry>
        </mxCell>
        <mxCell id="y3CxF9oAoQ71pDCY_Q7x-41" value="" style="endArrow=none;html=1;" edge="1" parent="y3CxF9oAoQ71pDCY_Q7x-38">
          <mxGeometry width="50" height="50" relative="1" as="geometry">
            <mxPoint x="10" y="15" as="sourcePoint" />
            <mxPoint x="10" as="targetPoint" />
          </mxGeometry>
        </mxCell>
        <mxCell id="y3CxF9oAoQ71pDCY_Q7x-42" value="" style="endArrow=none;html=1;" edge="1" parent="y3CxF9oAoQ71pDCY_Q7x-38">
          <mxGeometry width="50" height="50" relative="1" as="geometry">
            <mxPoint x="40" y="40" as="sourcePoint" />
            <mxPoint x="40" y="25" as="targetPoint" />
          </mxGeometry>
        </mxCell>
        <mxCell id="y3CxF9oAoQ71pDCY_Q7x-43" value="" style="endArrow=none;html=1;" edge="1" parent="y3CxF9oAoQ71pDCY_Q7x-38">
          <mxGeometry width="50" height="50" relative="1" as="geometry">
            <mxPoint x="80" y="40" as="sourcePoint" />
            <mxPoint x="80" y="25" as="targetPoint" />
          </mxGeometry>
        </mxCell>
        <mxCell id="y3CxF9oAoQ71pDCY_Q7x-45" value="192.168.26.{0~32}&lt;br&gt;192.168.26.3/27" style="text;html=1;strokeColor=none;fillColor=none;align=center;verticalAlign=middle;whiteSpace=wrap;rounded=0;" vertex="1" parent="VvmFpE21oRTmLU_xN0fs-1">
          <mxGeometry x="474" y="850" width="136" height="40" as="geometry" />
        </mxCell>
      </root>
    </mxGraphModel>
  </diagram>
  <diagram id="xxWaV5YdEQ2PYhr1yMmv" name="第 6 页">
    <mxGraphModel dx="2026" dy="1082" grid="1" gridSize="10" guides="1" tooltips="1" connect="1" arrows="1" fold="1" page="1" pageScale="1" pageWidth="827" pageHeight="1169" math="0" shadow="0">
      <root>
        <mxCell id="N4STWeXCbYqlfuPBIo5q-0" />
        <mxCell id="N4STWeXCbYqlfuPBIo5q-1" parent="N4STWeXCbYqlfuPBIo5q-0" />
        <mxCell id="N4STWeXCbYqlfuPBIo5q-3" value="网络其他部分" style="ellipse;shape=cloud;whiteSpace=wrap;html=1;" vertex="1" parent="N4STWeXCbYqlfuPBIo5q-1">
          <mxGeometry x="300" y="160" width="190" height="80" as="geometry" />
        </mxCell>
        <mxCell id="N4STWeXCbYqlfuPBIo5q-39" style="rounded=0;orthogonalLoop=1;jettySize=auto;html=1;exitX=0;exitY=1;exitDx=0;exitDy=0;entryX=1;entryY=0;entryDx=0;entryDy=0;endArrow=none;endFill=0;" edge="1" parent="N4STWeXCbYqlfuPBIo5q-1" source="N4STWeXCbYqlfuPBIo5q-4" target="N4STWeXCbYqlfuPBIo5q-10">
          <mxGeometry relative="1" as="geometry" />
        </mxCell>
        <mxCell id="N4STWeXCbYqlfuPBIo5q-4" value="" style="ellipse;whiteSpace=wrap;html=1;aspect=fixed;" vertex="1" parent="N4STWeXCbYqlfuPBIo5q-1">
          <mxGeometry x="306" y="200" width="14" height="14" as="geometry" />
        </mxCell>
        <mxCell id="N4STWeXCbYqlfuPBIo5q-49" style="edgeStyle=none;rounded=0;orthogonalLoop=1;jettySize=auto;html=1;exitX=1;exitY=1;exitDx=0;exitDy=0;entryX=0;entryY=0;entryDx=0;entryDy=0;endArrow=none;endFill=0;" edge="1" parent="N4STWeXCbYqlfuPBIo5q-1" source="N4STWeXCbYqlfuPBIo5q-9" target="N4STWeXCbYqlfuPBIo5q-24">
          <mxGeometry relative="1" as="geometry" />
        </mxCell>
        <mxCell id="N4STWeXCbYqlfuPBIo5q-9" value="" style="ellipse;whiteSpace=wrap;html=1;aspect=fixed;" vertex="1" parent="N4STWeXCbYqlfuPBIo5q-1">
          <mxGeometry x="470" y="200" width="14" height="14" as="geometry" />
        </mxCell>
        <mxCell id="N4STWeXCbYqlfuPBIo5q-43" style="edgeStyle=none;rounded=0;orthogonalLoop=1;jettySize=auto;html=1;exitX=1;exitY=1;exitDx=0;exitDy=0;entryX=0;entryY=0;entryDx=0;entryDy=0;endArrow=none;endFill=0;" edge="1" parent="N4STWeXCbYqlfuPBIo5q-1" source="N4STWeXCbYqlfuPBIo5q-10" target="N4STWeXCbYqlfuPBIo5q-18">
          <mxGeometry relative="1" as="geometry" />
        </mxCell>
        <mxCell id="N4STWeXCbYqlfuPBIo5q-10" value="" style="ellipse;whiteSpace=wrap;html=1;aspect=fixed;" vertex="1" parent="N4STWeXCbYqlfuPBIo5q-1">
          <mxGeometry x="230" y="240" width="14" height="14" as="geometry" />
        </mxCell>
        <mxCell id="N4STWeXCbYqlfuPBIo5q-40" style="edgeStyle=none;rounded=0;orthogonalLoop=1;jettySize=auto;html=1;exitX=1;exitY=0;exitDx=0;exitDy=0;entryX=0;entryY=1;entryDx=0;entryDy=0;endArrow=none;endFill=0;" edge="1" parent="N4STWeXCbYqlfuPBIo5q-1" source="N4STWeXCbYqlfuPBIo5q-11" target="N4STWeXCbYqlfuPBIo5q-10">
          <mxGeometry relative="1" as="geometry" />
        </mxCell>
        <mxCell id="N4STWeXCbYqlfuPBIo5q-41" style="edgeStyle=none;rounded=0;orthogonalLoop=1;jettySize=auto;html=1;exitX=0;exitY=1;exitDx=0;exitDy=0;entryX=1;entryY=0;entryDx=0;entryDy=0;endArrow=none;endFill=0;" edge="1" parent="N4STWeXCbYqlfuPBIo5q-1" source="N4STWeXCbYqlfuPBIo5q-11" target="N4STWeXCbYqlfuPBIo5q-17">
          <mxGeometry relative="1" as="geometry" />
        </mxCell>
        <mxCell id="N4STWeXCbYqlfuPBIo5q-11" value="" style="ellipse;whiteSpace=wrap;html=1;aspect=fixed;" vertex="1" parent="N4STWeXCbYqlfuPBIo5q-1">
          <mxGeometry x="180" y="290" width="14" height="14" as="geometry" />
        </mxCell>
        <mxCell id="N4STWeXCbYqlfuPBIo5q-42" style="edgeStyle=none;rounded=0;orthogonalLoop=1;jettySize=auto;html=1;exitX=1;exitY=1;exitDx=0;exitDy=0;entryX=1;entryY=1;entryDx=0;entryDy=0;endArrow=none;endFill=0;" edge="1" parent="N4STWeXCbYqlfuPBIo5q-1" source="N4STWeXCbYqlfuPBIo5q-17" target="N4STWeXCbYqlfuPBIo5q-20">
          <mxGeometry relative="1" as="geometry" />
        </mxCell>
        <mxCell id="N4STWeXCbYqlfuPBIo5q-17" value="" style="ellipse;whiteSpace=wrap;html=1;aspect=fixed;" vertex="1" parent="N4STWeXCbYqlfuPBIo5q-1">
          <mxGeometry x="120" y="350" width="14" height="14" as="geometry" />
        </mxCell>
        <mxCell id="N4STWeXCbYqlfuPBIo5q-44" style="edgeStyle=none;rounded=0;orthogonalLoop=1;jettySize=auto;html=1;exitX=1;exitY=1;exitDx=0;exitDy=0;entryX=0;entryY=0;entryDx=0;entryDy=0;endArrow=none;endFill=0;" edge="1" parent="N4STWeXCbYqlfuPBIo5q-1" source="N4STWeXCbYqlfuPBIo5q-18" target="N4STWeXCbYqlfuPBIo5q-19">
          <mxGeometry relative="1" as="geometry" />
        </mxCell>
        <mxCell id="N4STWeXCbYqlfuPBIo5q-47" style="edgeStyle=none;rounded=0;orthogonalLoop=1;jettySize=auto;html=1;exitX=0;exitY=1;exitDx=0;exitDy=0;entryX=1;entryY=0;entryDx=0;entryDy=0;endArrow=none;endFill=0;" edge="1" parent="N4STWeXCbYqlfuPBIo5q-1" source="N4STWeXCbYqlfuPBIo5q-18" target="N4STWeXCbYqlfuPBIo5q-21">
          <mxGeometry relative="1" as="geometry" />
        </mxCell>
        <mxCell id="N4STWeXCbYqlfuPBIo5q-18" value="" style="ellipse;whiteSpace=wrap;html=1;aspect=fixed;" vertex="1" parent="N4STWeXCbYqlfuPBIo5q-1">
          <mxGeometry x="280" y="290" width="14" height="14" as="geometry" />
        </mxCell>
        <mxCell id="N4STWeXCbYqlfuPBIo5q-45" style="edgeStyle=none;rounded=0;orthogonalLoop=1;jettySize=auto;html=1;exitX=1;exitY=1;exitDx=0;exitDy=0;entryX=0;entryY=0;entryDx=0;entryDy=0;endArrow=none;endFill=0;" edge="1" parent="N4STWeXCbYqlfuPBIo5q-1" source="N4STWeXCbYqlfuPBIo5q-19" target="N4STWeXCbYqlfuPBIo5q-23">
          <mxGeometry relative="1" as="geometry" />
        </mxCell>
        <mxCell id="N4STWeXCbYqlfuPBIo5q-19" value="" style="ellipse;whiteSpace=wrap;html=1;aspect=fixed;" vertex="1" parent="N4STWeXCbYqlfuPBIo5q-1">
          <mxGeometry x="340" y="346" width="14" height="14" as="geometry" />
        </mxCell>
        <mxCell id="N4STWeXCbYqlfuPBIo5q-20" value="" style="ellipse;whiteSpace=wrap;html=1;aspect=fixed;" vertex="1" parent="N4STWeXCbYqlfuPBIo5q-1">
          <mxGeometry x="166" y="400" width="14" height="14" as="geometry" />
        </mxCell>
        <mxCell id="N4STWeXCbYqlfuPBIo5q-48" style="edgeStyle=none;rounded=0;orthogonalLoop=1;jettySize=auto;html=1;exitX=1;exitY=1;exitDx=0;exitDy=0;entryX=0;entryY=0;entryDx=0;entryDy=0;endArrow=none;endFill=0;" edge="1" parent="N4STWeXCbYqlfuPBIo5q-1" source="N4STWeXCbYqlfuPBIo5q-21" target="N4STWeXCbYqlfuPBIo5q-22">
          <mxGeometry relative="1" as="geometry" />
        </mxCell>
        <mxCell id="N4STWeXCbYqlfuPBIo5q-21" value="" style="ellipse;whiteSpace=wrap;html=1;aspect=fixed;" vertex="1" parent="N4STWeXCbYqlfuPBIo5q-1">
          <mxGeometry x="220" y="350" width="14" height="14" as="geometry" />
        </mxCell>
        <mxCell id="N4STWeXCbYqlfuPBIo5q-22" value="" style="ellipse;whiteSpace=wrap;html=1;aspect=fixed;" vertex="1" parent="N4STWeXCbYqlfuPBIo5q-1">
          <mxGeometry x="270" y="400" width="14" height="14" as="geometry" />
        </mxCell>
        <mxCell id="N4STWeXCbYqlfuPBIo5q-23" value="" style="ellipse;whiteSpace=wrap;html=1;aspect=fixed;" vertex="1" parent="N4STWeXCbYqlfuPBIo5q-1">
          <mxGeometry x="388" y="400" width="14" height="14" as="geometry" />
        </mxCell>
        <mxCell id="N4STWeXCbYqlfuPBIo5q-50" style="edgeStyle=none;rounded=0;orthogonalLoop=1;jettySize=auto;html=1;exitX=1;exitY=1;exitDx=0;exitDy=0;endArrow=none;endFill=0;entryX=0;entryY=0;entryDx=0;entryDy=0;" edge="1" parent="N4STWeXCbYqlfuPBIo5q-1" source="N4STWeXCbYqlfuPBIo5q-24" target="N4STWeXCbYqlfuPBIo5q-28">
          <mxGeometry relative="1" as="geometry">
            <mxPoint x="555" y="287" as="targetPoint" />
          </mxGeometry>
        </mxCell>
        <mxCell id="N4STWeXCbYqlfuPBIo5q-53" style="edgeStyle=none;rounded=0;orthogonalLoop=1;jettySize=auto;html=1;exitX=0;exitY=1;exitDx=0;exitDy=0;entryX=1;entryY=0;entryDx=0;entryDy=0;endArrow=none;endFill=0;" edge="1" parent="N4STWeXCbYqlfuPBIo5q-1" source="N4STWeXCbYqlfuPBIo5q-24" target="N4STWeXCbYqlfuPBIo5q-31">
          <mxGeometry relative="1" as="geometry" />
        </mxCell>
        <mxCell id="N4STWeXCbYqlfuPBIo5q-24" value="" style="ellipse;whiteSpace=wrap;html=1;aspect=fixed;" vertex="1" parent="N4STWeXCbYqlfuPBIo5q-1">
          <mxGeometry x="570" y="240" width="14" height="14" as="geometry" />
        </mxCell>
        <mxCell id="N4STWeXCbYqlfuPBIo5q-51" style="edgeStyle=none;rounded=0;orthogonalLoop=1;jettySize=auto;html=1;exitX=1;exitY=1;exitDx=0;exitDy=0;entryX=0;entryY=0;entryDx=0;entryDy=0;endArrow=none;endFill=0;" edge="1" parent="N4STWeXCbYqlfuPBIo5q-1" source="N4STWeXCbYqlfuPBIo5q-28" target="N4STWeXCbYqlfuPBIo5q-29">
          <mxGeometry relative="1" as="geometry" />
        </mxCell>
        <mxCell id="N4STWeXCbYqlfuPBIo5q-56" style="edgeStyle=none;rounded=0;orthogonalLoop=1;jettySize=auto;html=1;exitX=0;exitY=1;exitDx=0;exitDy=0;entryX=1;entryY=0;entryDx=0;entryDy=0;endArrow=none;endFill=0;" edge="1" parent="N4STWeXCbYqlfuPBIo5q-1" source="N4STWeXCbYqlfuPBIo5q-28" target="N4STWeXCbYqlfuPBIo5q-38">
          <mxGeometry relative="1" as="geometry" />
        </mxCell>
        <mxCell id="N4STWeXCbYqlfuPBIo5q-28" value="" style="ellipse;whiteSpace=wrap;html=1;aspect=fixed;" vertex="1" parent="N4STWeXCbYqlfuPBIo5q-1">
          <mxGeometry x="640" y="290" width="14" height="14" as="geometry" />
        </mxCell>
        <mxCell id="N4STWeXCbYqlfuPBIo5q-52" style="edgeStyle=none;rounded=0;orthogonalLoop=1;jettySize=auto;html=1;exitX=1;exitY=1;exitDx=0;exitDy=0;entryX=0.5;entryY=0;entryDx=0;entryDy=0;endArrow=none;endFill=0;" edge="1" parent="N4STWeXCbYqlfuPBIo5q-1" source="N4STWeXCbYqlfuPBIo5q-29" target="N4STWeXCbYqlfuPBIo5q-30">
          <mxGeometry relative="1" as="geometry" />
        </mxCell>
        <mxCell id="N4STWeXCbYqlfuPBIo5q-29" value="" style="ellipse;whiteSpace=wrap;html=1;aspect=fixed;" vertex="1" parent="N4STWeXCbYqlfuPBIo5q-1">
          <mxGeometry x="710" y="350" width="14" height="14" as="geometry" />
        </mxCell>
        <mxCell id="N4STWeXCbYqlfuPBIo5q-30" value="" style="ellipse;whiteSpace=wrap;html=1;aspect=fixed;" vertex="1" parent="N4STWeXCbYqlfuPBIo5q-1">
          <mxGeometry x="770" y="400" width="14" height="14" as="geometry" />
        </mxCell>
        <mxCell id="N4STWeXCbYqlfuPBIo5q-54" style="edgeStyle=none;rounded=0;orthogonalLoop=1;jettySize=auto;html=1;exitX=0;exitY=1;exitDx=0;exitDy=0;entryX=1;entryY=0;entryDx=0;entryDy=0;endArrow=none;endFill=0;" edge="1" parent="N4STWeXCbYqlfuPBIo5q-1" source="N4STWeXCbYqlfuPBIo5q-31" target="N4STWeXCbYqlfuPBIo5q-32">
          <mxGeometry relative="1" as="geometry" />
        </mxCell>
        <mxCell id="N4STWeXCbYqlfuPBIo5q-31" value="" style="ellipse;whiteSpace=wrap;html=1;aspect=fixed;" vertex="1" parent="N4STWeXCbYqlfuPBIo5q-1">
          <mxGeometry x="510" y="290" width="14" height="14" as="geometry" />
        </mxCell>
        <mxCell id="N4STWeXCbYqlfuPBIo5q-55" style="edgeStyle=none;rounded=0;orthogonalLoop=1;jettySize=auto;html=1;exitX=1;exitY=1;exitDx=0;exitDy=0;entryX=0;entryY=0;entryDx=0;entryDy=0;endArrow=none;endFill=0;" edge="1" parent="N4STWeXCbYqlfuPBIo5q-1" source="N4STWeXCbYqlfuPBIo5q-32" target="N4STWeXCbYqlfuPBIo5q-33">
          <mxGeometry relative="1" as="geometry" />
        </mxCell>
        <mxCell id="N4STWeXCbYqlfuPBIo5q-32" value="" style="ellipse;whiteSpace=wrap;html=1;aspect=fixed;" vertex="1" parent="N4STWeXCbYqlfuPBIo5q-1">
          <mxGeometry x="440" y="350" width="14" height="14" as="geometry" />
        </mxCell>
        <mxCell id="N4STWeXCbYqlfuPBIo5q-33" value="" style="ellipse;whiteSpace=wrap;html=1;aspect=fixed;" vertex="1" parent="N4STWeXCbYqlfuPBIo5q-1">
          <mxGeometry x="484" y="400" width="14" height="14" as="geometry" />
        </mxCell>
        <mxCell id="N4STWeXCbYqlfuPBIo5q-37" value="" style="ellipse;whiteSpace=wrap;html=1;aspect=fixed;" vertex="1" parent="N4STWeXCbYqlfuPBIo5q-1">
          <mxGeometry x="610" y="400" width="14" height="14" as="geometry" />
        </mxCell>
        <mxCell id="N4STWeXCbYqlfuPBIo5q-57" style="edgeStyle=none;rounded=0;orthogonalLoop=1;jettySize=auto;html=1;exitX=1;exitY=1;exitDx=0;exitDy=0;entryX=0.5;entryY=0;entryDx=0;entryDy=0;endArrow=none;endFill=0;" edge="1" parent="N4STWeXCbYqlfuPBIo5q-1" source="N4STWeXCbYqlfuPBIo5q-38" target="N4STWeXCbYqlfuPBIo5q-37">
          <mxGeometry relative="1" as="geometry" />
        </mxCell>
        <mxCell id="N4STWeXCbYqlfuPBIo5q-38" value="" style="ellipse;whiteSpace=wrap;html=1;aspect=fixed;" vertex="1" parent="N4STWeXCbYqlfuPBIo5q-1">
          <mxGeometry x="556" y="350" width="14" height="14" as="geometry" />
        </mxCell>
        <mxCell id="N4STWeXCbYqlfuPBIo5q-70" value="19.12.4.8" style="text;html=1;strokeColor=none;fillColor=none;align=center;verticalAlign=middle;whiteSpace=wrap;rounded=0;" vertex="1" parent="N4STWeXCbYqlfuPBIo5q-1">
          <mxGeometry x="164" y="230" width="66" height="20" as="geometry" />
        </mxCell>
        <mxCell id="N4STWeXCbYqlfuPBIo5q-71" value="133.17.97.12" style="text;html=1;strokeColor=none;fillColor=none;align=center;verticalAlign=middle;whiteSpace=wrap;rounded=0;" vertex="1" parent="N4STWeXCbYqlfuPBIo5q-1">
          <mxGeometry x="296" y="280" width="66" height="20" as="geometry" />
        </mxCell>
        <mxCell id="N4STWeXCbYqlfuPBIo5q-72" value="18.1.1.1" style="text;html=1;strokeColor=none;fillColor=none;align=center;verticalAlign=middle;whiteSpace=wrap;rounded=0;" vertex="1" parent="N4STWeXCbYqlfuPBIo5q-1">
          <mxGeometry x="288" y="360" width="66" height="20" as="geometry" />
        </mxCell>
        <mxCell id="N4STWeXCbYqlfuPBIo5q-73" value="66.103.2.19" style="text;html=1;strokeColor=none;fillColor=none;align=center;verticalAlign=middle;whiteSpace=wrap;rounded=0;" vertex="1" parent="N4STWeXCbYqlfuPBIo5q-1">
          <mxGeometry x="168" y="364" width="66" height="20" as="geometry" />
        </mxCell>
        <mxCell id="N4STWeXCbYqlfuPBIo5q-74" value="159.66.2.231" style="text;html=1;strokeColor=none;fillColor=none;align=center;verticalAlign=middle;whiteSpace=wrap;rounded=0;" vertex="1" parent="N4STWeXCbYqlfuPBIo5q-1">
          <mxGeometry x="128" y="414" width="66" height="20" as="geometry" />
        </mxCell>
        <mxCell id="N4STWeXCbYqlfuPBIo5q-75" value="86.12.0.112" style="text;html=1;strokeColor=none;fillColor=none;align=center;verticalAlign=middle;whiteSpace=wrap;rounded=0;" vertex="1" parent="N4STWeXCbYqlfuPBIo5q-1">
          <mxGeometry x="62" y="364" width="66" height="20" as="geometry" />
        </mxCell>
        <mxCell id="N4STWeXCbYqlfuPBIo5q-76" value="19.2.3.254" style="text;html=1;strokeColor=none;fillColor=none;align=center;verticalAlign=middle;whiteSpace=wrap;rounded=0;" vertex="1" parent="N4STWeXCbYqlfuPBIo5q-1">
          <mxGeometry x="744" y="414" width="66" height="20" as="geometry" />
        </mxCell>
        <mxCell id="N4STWeXCbYqlfuPBIo5q-77" value="19.1.1.65" style="text;html=1;strokeColor=none;fillColor=none;align=center;verticalAlign=middle;whiteSpace=wrap;rounded=0;" vertex="1" parent="N4STWeXCbYqlfuPBIo5q-1">
          <mxGeometry x="458" y="414" width="66" height="20" as="geometry" />
        </mxCell>
        <mxCell id="N4STWeXCbYqlfuPBIo5q-78" value="19.2.1.65" style="text;html=1;strokeColor=none;fillColor=none;align=center;verticalAlign=middle;whiteSpace=wrap;rounded=0;" vertex="1" parent="N4STWeXCbYqlfuPBIo5q-1">
          <mxGeometry x="588" y="414" width="66" height="20" as="geometry" />
        </mxCell>
        <mxCell id="N4STWeXCbYqlfuPBIo5q-79" value="203.44.23.198" style="text;html=1;strokeColor=none;fillColor=none;align=center;verticalAlign=middle;whiteSpace=wrap;rounded=0;" vertex="1" parent="N4STWeXCbYqlfuPBIo5q-1">
          <mxGeometry x="360" y="414" width="66" height="20" as="geometry" />
        </mxCell>
        <mxCell id="N4STWeXCbYqlfuPBIo5q-80" value="19.12.4.9" style="text;html=1;strokeColor=none;fillColor=none;align=center;verticalAlign=middle;whiteSpace=wrap;rounded=0;" vertex="1" parent="N4STWeXCbYqlfuPBIo5q-1">
          <mxGeometry x="230" y="414" width="66" height="20" as="geometry" />
        </mxCell>
        <mxCell id="N4STWeXCbYqlfuPBIo5q-82" value="190.16.11.2" style="text;html=1;strokeColor=none;fillColor=none;align=center;verticalAlign=middle;whiteSpace=wrap;rounded=0;" vertex="1" parent="N4STWeXCbYqlfuPBIo5q-1">
          <mxGeometry x="114" y="280" width="66" height="20" as="geometry" />
        </mxCell>
        <mxCell id="N4STWeXCbYqlfuPBIo5q-83" value="a) 随机（位置无关）寻址" style="text;html=1;strokeColor=none;fillColor=none;align=center;verticalAlign=middle;whiteSpace=wrap;rounded=0;" vertex="1" parent="N4STWeXCbYqlfuPBIo5q-1">
          <mxGeometry x="194" y="450" width="166" height="20" as="geometry" />
        </mxCell>
        <mxCell id="N4STWeXCbYqlfuPBIo5q-84" value="b) 拓扑敏感（位置相关）寻址" style="text;html=1;strokeColor=none;fillColor=none;align=center;verticalAlign=middle;whiteSpace=wrap;rounded=0;" vertex="1" parent="N4STWeXCbYqlfuPBIo5q-1">
          <mxGeometry x="538" y="450" width="166" height="20" as="geometry" />
        </mxCell>
        <mxCell id="N4STWeXCbYqlfuPBIo5q-85" value="19.2.3.1" style="text;html=1;strokeColor=none;fillColor=none;align=center;verticalAlign=middle;whiteSpace=wrap;rounded=0;" vertex="1" parent="N4STWeXCbYqlfuPBIo5q-1">
          <mxGeometry x="724" y="343" width="66" height="20" as="geometry" />
        </mxCell>
        <mxCell id="N4STWeXCbYqlfuPBIo5q-86" value="19.2.1.1" style="text;html=1;strokeColor=none;fillColor=none;align=center;verticalAlign=middle;whiteSpace=wrap;rounded=0;" vertex="1" parent="N4STWeXCbYqlfuPBIo5q-1">
          <mxGeometry x="578" y="347" width="66" height="20" as="geometry" />
        </mxCell>
        <mxCell id="N4STWeXCbYqlfuPBIo5q-87" value="19.1.0.1" style="text;html=1;strokeColor=none;fillColor=none;align=center;verticalAlign=middle;whiteSpace=wrap;rounded=0;" vertex="1" parent="N4STWeXCbYqlfuPBIo5q-1">
          <mxGeometry x="444" y="280" width="66" height="20" as="geometry" />
        </mxCell>
        <mxCell id="N4STWeXCbYqlfuPBIo5q-88" value="19.1.1.1" style="text;html=1;strokeColor=none;fillColor=none;align=center;verticalAlign=middle;whiteSpace=wrap;rounded=0;" vertex="1" parent="N4STWeXCbYqlfuPBIo5q-1">
          <mxGeometry x="458" y="346" width="66" height="20" as="geometry" />
        </mxCell>
        <mxCell id="N4STWeXCbYqlfuPBIo5q-89" value="19.2.0.1" style="text;html=1;strokeColor=none;fillColor=none;align=center;verticalAlign=middle;whiteSpace=wrap;rounded=0;" vertex="1" parent="N4STWeXCbYqlfuPBIo5q-1">
          <mxGeometry x="644" y="270" width="66" height="20" as="geometry" />
        </mxCell>
        <mxCell id="N4STWeXCbYqlfuPBIo5q-90" value="19.0.0.1" style="text;html=1;strokeColor=none;fillColor=none;align=center;verticalAlign=middle;whiteSpace=wrap;rounded=0;" vertex="1" parent="N4STWeXCbYqlfuPBIo5q-1">
          <mxGeometry x="584" y="230" width="66" height="20" as="geometry" />
        </mxCell>
        <mxCell id="N4STWeXCbYqlfuPBIo5q-95" style="edgeStyle=none;rounded=0;orthogonalLoop=1;jettySize=auto;html=1;exitX=0.5;exitY=1;exitDx=0;exitDy=0;entryX=0.5;entryY=0;entryDx=0;entryDy=0;endArrow=classicThin;endFill=1;" edge="1" parent="N4STWeXCbYqlfuPBIo5q-1" source="N4STWeXCbYqlfuPBIo5q-93" target="N4STWeXCbYqlfuPBIo5q-10">
          <mxGeometry relative="1" as="geometry" />
        </mxCell>
        <mxCell id="N4STWeXCbYqlfuPBIo5q-93" value="9个条目&lt;br&gt;（随着树生长增大的表）" style="text;html=1;strokeColor=none;fillColor=none;align=center;verticalAlign=middle;whiteSpace=wrap;rounded=0;" vertex="1" parent="N4STWeXCbYqlfuPBIo5q-1">
          <mxGeometry x="152" y="185" width="136" height="30" as="geometry" />
        </mxCell>
        <mxCell id="N4STWeXCbYqlfuPBIo5q-96" style="edgeStyle=none;rounded=0;orthogonalLoop=1;jettySize=auto;html=1;exitX=0.5;exitY=1;exitDx=0;exitDy=0;entryX=0;entryY=0;entryDx=0;entryDy=0;startArrow=none;startFill=0;endArrow=classicThin;endFill=1;" edge="1" parent="N4STWeXCbYqlfuPBIo5q-1" source="N4STWeXCbYqlfuPBIo5q-94" target="N4STWeXCbYqlfuPBIo5q-24">
          <mxGeometry relative="1" as="geometry" />
        </mxCell>
        <mxCell id="N4STWeXCbYqlfuPBIo5q-94" value="3个条目&lt;br&gt;（不随着树生长变化的表）" style="text;html=1;strokeColor=none;fillColor=none;align=center;verticalAlign=middle;whiteSpace=wrap;rounded=0;" vertex="1" parent="N4STWeXCbYqlfuPBIo5q-1">
          <mxGeometry x="514" y="192" width="156" height="30" as="geometry" />
        </mxCell>
      </root>
    </mxGraphModel>
  </diagram>
  <diagram id="xSXefMpxKZP5e6agoCtu" name="第 7 页">
    <mxGraphModel dx="965" dy="515" grid="1" gridSize="10" guides="1" tooltips="1" connect="1" arrows="1" fold="1" page="1" pageScale="1" pageWidth="827" pageHeight="1169" math="0" shadow="0">
      <root>
        <mxCell id="hID1S27MX7W1YGHTSbLt-0" />
        <mxCell id="hID1S27MX7W1YGHTSbLt-1" style="" parent="hID1S27MX7W1YGHTSbLt-0" />
        <mxCell id="hID1S27MX7W1YGHTSbLt-9" value="" style="group" vertex="1" connectable="0" parent="hID1S27MX7W1YGHTSbLt-1">
          <mxGeometry x="40" y="320" width="120" height="80" as="geometry" />
        </mxCell>
        <mxCell id="hID1S27MX7W1YGHTSbLt-2" value="" style="rounded=0;whiteSpace=wrap;html=1;fillColor=#dae8fc;strokeColor=#6c8ebf;" vertex="1" parent="hID1S27MX7W1YGHTSbLt-9">
          <mxGeometry width="120" height="80" as="geometry" />
        </mxCell>
        <mxCell id="hID1S27MX7W1YGHTSbLt-8" value="" style="rounded=0;whiteSpace=wrap;html=1;fillColor=#fff2cc;strokeColor=#d6b656;" vertex="1" parent="hID1S27MX7W1YGHTSbLt-9">
          <mxGeometry y="10" width="120" height="40" as="geometry" />
        </mxCell>
        <mxCell id="hID1S27MX7W1YGHTSbLt-3" value="190.154.27.0/26" style="text;html=1;strokeColor=none;fillColor=none;align=center;verticalAlign=middle;whiteSpace=wrap;rounded=0;" vertex="1" parent="hID1S27MX7W1YGHTSbLt-9">
          <mxGeometry y="10" width="110" height="20" as="geometry" />
        </mxCell>
        <mxCell id="hID1S27MX7W1YGHTSbLt-7" value="190.154.27.192/26" style="text;html=1;strokeColor=none;fillColor=none;align=center;verticalAlign=middle;whiteSpace=wrap;rounded=0;" vertex="1" parent="hID1S27MX7W1YGHTSbLt-9">
          <mxGeometry y="50" width="110" height="20" as="geometry" />
        </mxCell>
        <mxCell id="hID1S27MX7W1YGHTSbLt-6" value="190.154.27.64/26" style="text;html=1;strokeColor=none;fillColor=none;align=center;verticalAlign=middle;whiteSpace=wrap;rounded=0;" vertex="1" parent="hID1S27MX7W1YGHTSbLt-9">
          <mxGeometry y="30" width="110" height="20" as="geometry" />
        </mxCell>
        <mxCell id="hID1S27MX7W1YGHTSbLt-10" value="" style="group" vertex="1" connectable="0" parent="hID1S27MX7W1YGHTSbLt-1">
          <mxGeometry x="210" y="320" width="120" height="80" as="geometry" />
        </mxCell>
        <mxCell id="hID1S27MX7W1YGHTSbLt-11" value="" style="rounded=0;whiteSpace=wrap;html=1;fillColor=#dae8fc;strokeColor=#6c8ebf;" vertex="1" parent="hID1S27MX7W1YGHTSbLt-10">
          <mxGeometry width="120" height="80" as="geometry" />
        </mxCell>
        <mxCell id="hID1S27MX7W1YGHTSbLt-12" value="" style="rounded=0;whiteSpace=wrap;html=1;fillColor=#fff2cc;strokeColor=#d6b656;" vertex="1" parent="hID1S27MX7W1YGHTSbLt-10">
          <mxGeometry y="30" width="120" height="50" as="geometry" />
        </mxCell>
        <mxCell id="hID1S27MX7W1YGHTSbLt-13" value="192.154.27.0/25" style="text;html=1;strokeColor=#82b366;fillColor=#d5e8d4;align=center;verticalAlign=middle;whiteSpace=wrap;rounded=0;" vertex="1" parent="hID1S27MX7W1YGHTSbLt-10">
          <mxGeometry y="10" width="110" height="20" as="geometry" />
        </mxCell>
        <mxCell id="hID1S27MX7W1YGHTSbLt-14" value="192.154.27.128/26" style="text;html=1;strokeColor=#d79b00;fillColor=#ffe6cc;align=center;verticalAlign=middle;whiteSpace=wrap;rounded=0;" vertex="1" parent="hID1S27MX7W1YGHTSbLt-10">
          <mxGeometry y="50" width="110" height="20" as="geometry" />
        </mxCell>
        <mxCell id="hID1S27MX7W1YGHTSbLt-15" value="192.154.27.192/26" style="text;html=1;strokeColor=none;fillColor=none;align=center;verticalAlign=middle;whiteSpace=wrap;rounded=0;" vertex="1" parent="hID1S27MX7W1YGHTSbLt-10">
          <mxGeometry y="30" width="110" height="20" as="geometry" />
        </mxCell>
        <mxCell id="hID1S27MX7W1YGHTSbLt-16" value="" style="group" vertex="1" connectable="0" parent="hID1S27MX7W1YGHTSbLt-1">
          <mxGeometry x="380" y="320" width="120" height="80" as="geometry" />
        </mxCell>
        <mxCell id="hID1S27MX7W1YGHTSbLt-17" value="" style="rounded=0;whiteSpace=wrap;html=1;fillColor=#dae8fc;strokeColor=#6c8ebf;" vertex="1" parent="hID1S27MX7W1YGHTSbLt-16">
          <mxGeometry width="120" height="80" as="geometry" />
        </mxCell>
        <mxCell id="hID1S27MX7W1YGHTSbLt-18" value="" style="rounded=0;whiteSpace=wrap;html=1;fillColor=#fff2cc;strokeColor=#d6b656;" vertex="1" parent="hID1S27MX7W1YGHTSbLt-16">
          <mxGeometry y="10" width="120" height="50" as="geometry" />
        </mxCell>
        <mxCell id="hID1S27MX7W1YGHTSbLt-19" value="192.154.27.0/25" style="text;html=1;strokeColor=none;fillColor=none;align=center;verticalAlign=middle;whiteSpace=wrap;rounded=0;" vertex="1" parent="hID1S27MX7W1YGHTSbLt-16">
          <mxGeometry y="10" width="110" height="20" as="geometry" />
        </mxCell>
        <mxCell id="hID1S27MX7W1YGHTSbLt-21" value="192.154.27.128/25" style="text;html=1;strokeColor=#82b366;fillColor=#d5e8d4;align=center;verticalAlign=middle;whiteSpace=wrap;rounded=0;" vertex="1" parent="hID1S27MX7W1YGHTSbLt-16">
          <mxGeometry y="30" width="110" height="20" as="geometry" />
        </mxCell>
        <mxCell id="hID1S27MX7W1YGHTSbLt-22" value="" style="shape=flexArrow;endArrow=classic;html=1;entryX=0.998;entryY=0.637;entryDx=0;entryDy=0;entryPerimeter=0;" edge="1" parent="hID1S27MX7W1YGHTSbLt-1" target="hID1S27MX7W1YGHTSbLt-25">
          <mxGeometry width="50" height="50" relative="1" as="geometry">
            <mxPoint x="500" y="360" as="sourcePoint" />
            <mxPoint x="590" y="370" as="targetPoint" />
            <Array as="points">
              <mxPoint x="560" y="360" />
              <mxPoint x="560" y="478" />
            </Array>
          </mxGeometry>
        </mxCell>
        <mxCell id="hID1S27MX7W1YGHTSbLt-23" value="" style="group" vertex="1" connectable="0" parent="hID1S27MX7W1YGHTSbLt-1">
          <mxGeometry x="380" y="440" width="120" height="80" as="geometry" />
        </mxCell>
        <mxCell id="hID1S27MX7W1YGHTSbLt-24" value="" style="rounded=0;whiteSpace=wrap;html=1;fillColor=#dae8fc;strokeColor=#6c8ebf;" vertex="1" parent="hID1S27MX7W1YGHTSbLt-23">
          <mxGeometry width="120" height="80" as="geometry" />
        </mxCell>
        <mxCell id="hID1S27MX7W1YGHTSbLt-25" value="" style="rounded=0;whiteSpace=wrap;html=1;fillColor=#fff2cc;strokeColor=#d6b656;" vertex="1" parent="hID1S27MX7W1YGHTSbLt-23">
          <mxGeometry width="120" height="60" as="geometry" />
        </mxCell>
        <mxCell id="hID1S27MX7W1YGHTSbLt-26" value="192.154.26.0/24" style="text;html=1;strokeColor=#d79b00;fillColor=#ffe6cc;align=center;verticalAlign=middle;whiteSpace=wrap;rounded=0;" vertex="1" parent="hID1S27MX7W1YGHTSbLt-23">
          <mxGeometry y="10" width="110" height="20" as="geometry" />
        </mxCell>
        <mxCell id="hID1S27MX7W1YGHTSbLt-28" value="192.154.27.0/24" style="text;html=1;strokeColor=#82b366;fillColor=#d5e8d4;align=center;verticalAlign=middle;whiteSpace=wrap;rounded=0;" vertex="1" parent="hID1S27MX7W1YGHTSbLt-23">
          <mxGeometry y="30" width="110" height="20" as="geometry" />
        </mxCell>
        <mxCell id="hID1S27MX7W1YGHTSbLt-29" value="" style="group" vertex="1" connectable="0" parent="hID1S27MX7W1YGHTSbLt-1">
          <mxGeometry x="210" y="440" width="120" height="80" as="geometry" />
        </mxCell>
        <mxCell id="hID1S27MX7W1YGHTSbLt-30" value="" style="rounded=0;whiteSpace=wrap;html=1;fillColor=#dae8fc;strokeColor=#6c8ebf;" vertex="1" parent="hID1S27MX7W1YGHTSbLt-29">
          <mxGeometry width="120" height="80" as="geometry" />
        </mxCell>
        <mxCell id="hID1S27MX7W1YGHTSbLt-33" value="192.154.26.0/23" style="text;html=1;strokeColor=#82b366;fillColor=#d5e8d4;align=center;verticalAlign=middle;whiteSpace=wrap;rounded=0;" vertex="1" parent="hID1S27MX7W1YGHTSbLt-29">
          <mxGeometry x="5" y="30" width="110" height="20" as="geometry" />
        </mxCell>
        <mxCell id="hID1S27MX7W1YGHTSbLt-35" value="" style="shape=flexArrow;endArrow=classic;html=1;exitX=1;exitY=0.25;exitDx=0;exitDy=0;entryX=0;entryY=0.5;entryDx=0;entryDy=0;" edge="1" parent="hID1S27MX7W1YGHTSbLt-1" source="hID1S27MX7W1YGHTSbLt-8" target="hID1S27MX7W1YGHTSbLt-13">
          <mxGeometry width="50" height="50" relative="1" as="geometry">
            <mxPoint x="160" y="390" as="sourcePoint" />
            <mxPoint x="210" y="340" as="targetPoint" />
          </mxGeometry>
        </mxCell>
        <mxCell id="hID1S27MX7W1YGHTSbLt-37" value="" style="shape=flexArrow;endArrow=classic;html=1;entryX=0;entryY=0.5;entryDx=0;entryDy=0;" edge="1" parent="hID1S27MX7W1YGHTSbLt-1" target="hID1S27MX7W1YGHTSbLt-21">
          <mxGeometry width="50" height="50" relative="1" as="geometry">
            <mxPoint x="330" y="360" as="sourcePoint" />
            <mxPoint x="380" y="350" as="targetPoint" />
          </mxGeometry>
        </mxCell>
        <mxCell id="hID1S27MX7W1YGHTSbLt-38" value="" style="shape=flexArrow;endArrow=classic;html=1;entryX=1;entryY=0.75;entryDx=0;entryDy=0;exitX=0;exitY=0.5;exitDx=0;exitDy=0;" edge="1" parent="hID1S27MX7W1YGHTSbLt-1" source="hID1S27MX7W1YGHTSbLt-28">
          <mxGeometry width="50" height="50" relative="1" as="geometry">
            <mxPoint x="330" y="510" as="sourcePoint" />
            <mxPoint x="330" y="480" as="targetPoint" />
          </mxGeometry>
        </mxCell>
        <mxCell id="hID1S27MX7W1YGHTSbLt-42" value="浅黄色：待聚合项" style="text;html=1;strokeColor=#d6b656;fillColor=#fff2cc;align=left;verticalAlign=middle;whiteSpace=wrap;rounded=0;" vertex="1" parent="hID1S27MX7W1YGHTSbLt-1">
          <mxGeometry x="40" y="440" width="120" height="20" as="geometry" />
        </mxCell>
        <mxCell id="hID1S27MX7W1YGHTSbLt-43" value="浅绿色：聚合结果" style="text;html=1;strokeColor=#82b366;fillColor=#d5e8d4;align=left;verticalAlign=middle;whiteSpace=wrap;rounded=0;" vertex="1" parent="hID1S27MX7W1YGHTSbLt-1">
          <mxGeometry x="40" y="460" width="120" height="20" as="geometry" />
        </mxCell>
        <mxCell id="hID1S27MX7W1YGHTSbLt-44" value="浅橙色：新增前缀" style="text;html=1;strokeColor=#d79b00;fillColor=#ffe6cc;align=left;verticalAlign=middle;whiteSpace=wrap;rounded=0;" vertex="1" parent="hID1S27MX7W1YGHTSbLt-1">
          <mxGeometry x="40" y="480" width="120" height="20" as="geometry" />
        </mxCell>
      </root>
    </mxGraphModel>
  </diagram>
  <diagram id="k-8TlMorBQF2qX90gN_i" name="第 8 页">
    <mxGraphModel dx="2026" dy="1082" grid="1" gridSize="10" guides="1" tooltips="1" connect="1" arrows="1" fold="1" page="1" pageScale="1" pageWidth="827" pageHeight="1169" math="0" shadow="0">
      <root>
        <mxCell id="yxpscDX8ttscwoePs-S8-0" />
        <mxCell id="yxpscDX8ttscwoePs-S8-1" parent="yxpscDX8ttscwoePs-S8-0" />
        <mxCell id="HvoKf63bhs0ifJ5GoM4N-0" value="" style="rounded=0;whiteSpace=wrap;html=1;labelBackgroundColor=#FFFFFF;align=right;fillColor=#d5e8d4;strokeColor=#82b366;" vertex="1" parent="yxpscDX8ttscwoePs-S8-1">
          <mxGeometry x="150" y="350" width="440" height="360" as="geometry" />
        </mxCell>
        <mxCell id="HvoKf63bhs0ifJ5GoM4N-1" style="edgeStyle=orthogonalEdgeStyle;rounded=0;orthogonalLoop=1;jettySize=auto;html=1;exitX=0.75;exitY=1;exitDx=0;exitDy=0;endArrow=classicThin;endFill=1;" edge="1" parent="yxpscDX8ttscwoePs-S8-1" source="HvoKf63bhs0ifJ5GoM4N-2">
          <mxGeometry relative="1" as="geometry">
            <mxPoint x="420" y="480" as="targetPoint" />
          </mxGeometry>
        </mxCell>
        <mxCell id="HvoKf63bhs0ifJ5GoM4N-2" value="企业边界路由器" style="rounded=0;whiteSpace=wrap;html=1;labelBackgroundColor=none;align=center;fillColor=#f5f5f5;strokeColor=#666666;fontColor=#333333;" vertex="1" parent="yxpscDX8ttscwoePs-S8-1">
          <mxGeometry x="274" y="375" width="120" height="60" as="geometry" />
        </mxCell>
        <mxCell id="HvoKf63bhs0ifJ5GoM4N-4" value="" style="shape=filledEdge;rounded=0;fixDash=1;endArrow=none;strokeWidth=10;fillColor=#f5f5f5;edgeStyle=orthogonalEdgeStyle;strokeColor=#666666;" edge="1" parent="yxpscDX8ttscwoePs-S8-1">
          <mxGeometry width="60" height="40" relative="1" as="geometry">
            <mxPoint x="410" y="480" as="sourcePoint" />
            <mxPoint x="550" y="480" as="targetPoint" />
          </mxGeometry>
        </mxCell>
        <mxCell id="HvoKf63bhs0ifJ5GoM4N-5" value="128.32.2.70/26" style="text;html=1;strokeColor=none;fillColor=none;align=center;verticalAlign=middle;whiteSpace=wrap;rounded=0;labelBackgroundColor=none;" vertex="1" parent="yxpscDX8ttscwoePs-S8-1">
          <mxGeometry x="450" y="430" width="80" height="30" as="geometry" />
        </mxCell>
        <mxCell id="HvoKf63bhs0ifJ5GoM4N-6" value="" style="endArrow=none;html=1;exitX=0.855;exitY=0.394;exitDx=0;exitDy=0;exitPerimeter=0;" edge="1" parent="yxpscDX8ttscwoePs-S8-1">
          <mxGeometry width="50" height="50" relative="1" as="geometry">
            <mxPoint x="539.9000000000001" y="460.02" as="sourcePoint" />
            <mxPoint x="540" y="475" as="targetPoint" />
          </mxGeometry>
        </mxCell>
        <mxCell id="HvoKf63bhs0ifJ5GoM4N-7" value="" style="endArrow=none;html=1;" edge="1" parent="yxpscDX8ttscwoePs-S8-1">
          <mxGeometry width="50" height="50" relative="1" as="geometry">
            <mxPoint x="470" y="475" as="sourcePoint" />
            <mxPoint x="470" y="460" as="targetPoint" />
          </mxGeometry>
        </mxCell>
        <mxCell id="HvoKf63bhs0ifJ5GoM4N-8" value="" style="endArrow=none;html=1;" edge="1" parent="yxpscDX8ttscwoePs-S8-1">
          <mxGeometry width="50" height="50" relative="1" as="geometry">
            <mxPoint x="500" y="500" as="sourcePoint" />
            <mxPoint x="500" y="485" as="targetPoint" />
          </mxGeometry>
        </mxCell>
        <mxCell id="HvoKf63bhs0ifJ5GoM4N-9" value="" style="endArrow=none;html=1;exitX=0.5;exitY=0;exitDx=0;exitDy=0;" edge="1" parent="yxpscDX8ttscwoePs-S8-1" source="HvoKf63bhs0ifJ5GoM4N-11">
          <mxGeometry width="50" height="50" relative="1" as="geometry">
            <mxPoint x="440" y="500" as="sourcePoint" />
            <mxPoint x="442" y="485" as="targetPoint" />
          </mxGeometry>
        </mxCell>
        <mxCell id="HvoKf63bhs0ifJ5GoM4N-11" value="" style="rounded=0;whiteSpace=wrap;html=1;" vertex="1" parent="yxpscDX8ttscwoePs-S8-1">
          <mxGeometry x="394" y="530" width="96" height="40" as="geometry" />
        </mxCell>
        <mxCell id="HvoKf63bhs0ifJ5GoM4N-12" value="内部NAT路由器" style="text;html=1;strokeColor=none;fillColor=none;align=center;verticalAlign=middle;whiteSpace=wrap;rounded=0;" vertex="1" parent="yxpscDX8ttscwoePs-S8-1">
          <mxGeometry x="394" y="540" width="90" height="20" as="geometry" />
        </mxCell>
        <mxCell id="HvoKf63bhs0ifJ5GoM4N-13" value="" style="endArrow=none;html=1;entryX=0.25;entryY=1;entryDx=0;entryDy=0;" edge="1" parent="yxpscDX8ttscwoePs-S8-1" target="HvoKf63bhs0ifJ5GoM4N-11">
          <mxGeometry width="50" height="50" relative="1" as="geometry">
            <mxPoint x="418" y="620" as="sourcePoint" />
            <mxPoint x="460" y="580" as="targetPoint" />
          </mxGeometry>
        </mxCell>
        <mxCell id="HvoKf63bhs0ifJ5GoM4N-14" value="" style="group" vertex="1" connectable="0" parent="yxpscDX8ttscwoePs-S8-1">
          <mxGeometry x="340" y="600" width="90" height="40" as="geometry" />
        </mxCell>
        <mxCell id="HvoKf63bhs0ifJ5GoM4N-15" value="" style="shape=filledEdge;rounded=0;fixDash=1;endArrow=none;strokeWidth=10;fillColor=#f5f5f5;edgeStyle=orthogonalEdgeStyle;strokeColor=#666666;" edge="1" parent="HvoKf63bhs0ifJ5GoM4N-14">
          <mxGeometry width="60" height="40" relative="1" as="geometry">
            <mxPoint y="20" as="sourcePoint" />
            <mxPoint x="90" y="20" as="targetPoint" />
          </mxGeometry>
        </mxCell>
        <mxCell id="HvoKf63bhs0ifJ5GoM4N-16" value="" style="endArrow=none;html=1;" edge="1" parent="HvoKf63bhs0ifJ5GoM4N-14">
          <mxGeometry width="50" height="50" relative="1" as="geometry">
            <mxPoint x="60" y="15" as="sourcePoint" />
            <mxPoint x="60" as="targetPoint" />
          </mxGeometry>
        </mxCell>
        <mxCell id="HvoKf63bhs0ifJ5GoM4N-17" value="" style="endArrow=none;html=1;" edge="1" parent="HvoKf63bhs0ifJ5GoM4N-14">
          <mxGeometry width="50" height="50" relative="1" as="geometry">
            <mxPoint x="10" y="15" as="sourcePoint" />
            <mxPoint x="10" as="targetPoint" />
          </mxGeometry>
        </mxCell>
        <mxCell id="HvoKf63bhs0ifJ5GoM4N-18" value="" style="endArrow=none;html=1;" edge="1" parent="HvoKf63bhs0ifJ5GoM4N-14">
          <mxGeometry width="50" height="50" relative="1" as="geometry">
            <mxPoint x="40" y="40" as="sourcePoint" />
            <mxPoint x="40" y="25" as="targetPoint" />
          </mxGeometry>
        </mxCell>
        <mxCell id="HvoKf63bhs0ifJ5GoM4N-19" value="" style="endArrow=none;html=1;" edge="1" parent="HvoKf63bhs0ifJ5GoM4N-14">
          <mxGeometry width="50" height="50" relative="1" as="geometry">
            <mxPoint x="80" y="40" as="sourcePoint" />
            <mxPoint x="80" y="25" as="targetPoint" />
          </mxGeometry>
        </mxCell>
        <mxCell id="HvoKf63bhs0ifJ5GoM4N-20" value="10.0.{0~255}.{0~255}&lt;br&gt;10.0.0.0/16" style="text;html=1;strokeColor=none;fillColor=none;align=center;verticalAlign=middle;whiteSpace=wrap;rounded=0;" vertex="1" parent="yxpscDX8ttscwoePs-S8-1">
          <mxGeometry x="394" y="640" width="136" height="40" as="geometry" />
        </mxCell>
        <mxCell id="HvoKf63bhs0ifJ5GoM4N-21" value="" style="endArrow=classic;startArrow=classic;html=1;exitX=0.5;exitY=0;exitDx=0;exitDy=0;" edge="1" parent="yxpscDX8ttscwoePs-S8-1" source="HvoKf63bhs0ifJ5GoM4N-2">
          <mxGeometry width="50" height="50" relative="1" as="geometry">
            <mxPoint x="340" y="310" as="sourcePoint" />
            <mxPoint x="334" y="260" as="targetPoint" />
          </mxGeometry>
        </mxCell>
        <mxCell id="HvoKf63bhs0ifJ5GoM4N-22" value="&lt;font style=&quot;font-size: 20px&quot;&gt;Internet&lt;/font&gt;" style="ellipse;shape=cloud;whiteSpace=wrap;html=1;rounded=0;" vertex="1" parent="yxpscDX8ttscwoePs-S8-1">
          <mxGeometry x="274" y="180" width="120" height="80" as="geometry" />
        </mxCell>
        <mxCell id="HvoKf63bhs0ifJ5GoM4N-23" value="前往或来自128.32.2.{64~127}&lt;br&gt;(128.32.2.64/26)的所有流量" style="text;html=1;strokeColor=none;fillColor=none;align=center;verticalAlign=middle;whiteSpace=wrap;rounded=0;" vertex="1" parent="yxpscDX8ttscwoePs-S8-1">
          <mxGeometry x="332" y="280" width="178" height="50" as="geometry" />
        </mxCell>
        <mxCell id="HvoKf63bhs0ifJ5GoM4N-24" value="10.0.0.123" style="text;html=1;strokeColor=none;fillColor=none;align=center;verticalAlign=middle;whiteSpace=wrap;rounded=0;" vertex="1" parent="yxpscDX8ttscwoePs-S8-1">
          <mxGeometry x="314" y="580" width="40" height="20" as="geometry" />
        </mxCell>
        <mxCell id="HvoKf63bhs0ifJ5GoM4N-25" value="" style="endArrow=classic;html=1;entryX=0.25;entryY=1;entryDx=0;entryDy=0;exitX=0;exitY=0.25;exitDx=0;exitDy=0;" edge="1" parent="yxpscDX8ttscwoePs-S8-1" source="HvoKf63bhs0ifJ5GoM4N-26" target="HvoKf63bhs0ifJ5GoM4N-11">
          <mxGeometry width="50" height="50" relative="1" as="geometry">
            <mxPoint x="470" y="630" as="sourcePoint" />
            <mxPoint x="420" y="580" as="targetPoint" />
          </mxGeometry>
        </mxCell>
        <mxCell id="HvoKf63bhs0ifJ5GoM4N-26" value="10.0.0.1/16" style="text;html=1;strokeColor=none;fillColor=none;align=center;verticalAlign=middle;whiteSpace=wrap;rounded=0;" vertex="1" parent="yxpscDX8ttscwoePs-S8-1">
          <mxGeometry x="470" y="585" width="70" height="20" as="geometry" />
        </mxCell>
        <mxCell id="HvoKf63bhs0ifJ5GoM4N-27" value="" style="endArrow=classic;html=1;entryX=0.75;entryY=1;entryDx=0;entryDy=0;exitX=1;exitY=0.25;exitDx=0;exitDy=0;" edge="1" parent="yxpscDX8ttscwoePs-S8-1" source="HvoKf63bhs0ifJ5GoM4N-28" target="HvoKf63bhs0ifJ5GoM4N-2">
          <mxGeometry width="50" height="50" relative="1" as="geometry">
            <mxPoint x="270" y="510" as="sourcePoint" />
            <mxPoint x="320" y="460" as="targetPoint" />
          </mxGeometry>
        </mxCell>
        <mxCell id="HvoKf63bhs0ifJ5GoM4N-28" value="128.32.2.65/26" style="text;html=1;strokeColor=none;fillColor=none;align=center;verticalAlign=middle;whiteSpace=wrap;rounded=0;" vertex="1" parent="yxpscDX8ttscwoePs-S8-1">
          <mxGeometry x="210" y="470" width="90" height="30" as="geometry" />
        </mxCell>
      </root>
    </mxGraphModel>
  </diagram>
</mxfile>
